<svg width="1070" height="598" viewBox="0 0 1070 598" fill="none" xmlns="http://www.w3.org/2000/svg">
  <path fill-rule="evenodd" clip-rule="evenodd" d="M826.581 18.744L795.412 40.5384C792.51 42.5757 791.801 46.5755 793.83 49.4852C793.833 49.4891 793.836 49.493 793.839 49.4969L804.749 65.3911C805.357 66.2752 805.131 67.4857 804.247 68.0929C803.363 68.7002 802.152 68.4748 801.545 67.5907C801.545 67.5907 790.636 51.6974 790.636 51.6984C787.389 47.0311 788.528 40.6229 793.18 37.3576L793.183 37.3556L826.555 14.0195L826.557 14.0185C828.246 12.84 830.34 12.398 832.352 12.8031L862.44 18.7965C863.91 19.0889 865.248 19.8069 866.293 20.8484C866.614 21.167 866.908 21.5148 867.169 21.8908L867.509 22.3766C867.537 22.4164 867.564 22.4562 867.588 22.498L903.962 74.5293L903.963 74.5313C907.219 79.1995 906.082 85.6145 901.426 88.8818L901.424 88.8837L852.915 122.8L852.913 122.801C848.25 126.054 841.842 124.922 838.571 120.277L809.926 80.5091C809.299 79.6386 809.496 78.4232 810.367 77.7966C811.237 77.17 812.453 77.3672 813.079 78.2377L841.73 118.012C841.735 118.019 841.738 118.025 841.743 118.032C843.781 120.935 847.779 121.644 850.69 119.614L899.195 85.701C902.097 83.6637 902.805 79.6649 900.776 76.7542L865.441 26.2083L865.116 26.4376L865.108 26.4434L851.604 35.8857C846.772 39.2705 840.109 38.0843 836.724 33.2519L826.65 18.8431L826.581 18.744ZM829.895 16.7019L839.908 31.0232C842.062 34.0981 846.301 34.8559 849.376 32.702L862.877 23.2616L863.011 23.1664C862.618 22.9061 862.174 22.7215 861.701 22.6282L831.612 16.6329H831.608C831.035 16.5173 830.446 16.5445 829.895 16.7019ZM826.12 79.0518C825.242 79.6668 824.029 79.4521 823.414 78.5729C822.799 77.6946 823.014 76.4821 823.893 75.8671L867.311 45.5068C868.189 44.8918 869.402 45.1065 870.017 45.9858C870.632 46.864 870.417 48.0765 869.538 48.6915L826.12 79.0518ZM834.786 91.4388C833.907 92.0538 832.694 91.8391 832.08 90.9599C831.465 90.0806 831.68 88.8682 832.559 88.2542L875.977 57.9035C876.856 57.2885 878.069 57.5033 878.683 58.3825C879.298 59.2617 879.083 60.4742 878.204 61.0882L834.786 91.4388ZM843.442 103.836C842.563 104.451 841.351 104.236 840.737 103.357C840.122 102.477 840.337 101.265 841.216 100.651L876.327 76.11C877.206 75.495 878.419 75.7097 879.033 76.589C879.648 77.4682 879.433 78.6807 878.554 79.2947L843.442 103.836ZM817.454 66.6551C816.575 67.2701 815.362 67.0554 814.748 66.1761C814.133 65.2969 814.348 64.0844 815.227 63.4704L832.861 51.1417C833.74 50.5267 834.952 50.7414 835.566 51.6206C836.181 52.4999 835.967 53.7123 835.087 54.3264L817.454 66.6551Z" fill="#6D8CB1"/>
  <path fill-rule="evenodd" clip-rule="evenodd" d="M774.966 584.508C755.2 566.75 751.722 536.558 767.757 514.667C771.591 509.44 776.222 505.133 781.348 501.783C781.348 501.783 781.817 501.463 782.44 501.447C782.707 501.44 782.962 501.501 783.194 501.598C783.223 501.61 783.252 501.621 783.279 501.632C783.332 501.651 783.384 501.671 783.391 501.676C783.432 501.692 783.487 501.713 783.535 501.732L783.559 501.741C783.583 501.748 783.605 501.757 783.627 501.764C783.685 501.786 783.748 501.817 783.812 501.838C783.832 501.845 783.852 501.852 783.872 501.86C783.872 501.86 783.99 501.899 784.056 501.926C784.127 501.954 784.199 501.975 784.293 502.008C784.312 502.014 784.332 502.021 784.353 502.027C784.397 502.039 784.441 502.053 784.483 502.068C784.575 502.102 784.665 502.126 784.764 502.159C784.851 502.188 784.929 502.207 785.017 502.237C785.033 502.241 785.05 502.247 785.066 502.253C785.155 502.285 785.25 502.308 785.349 502.341C785.408 502.361 785.467 502.381 785.534 502.399C785.6 502.414 785.664 502.435 785.727 502.457C785.762 502.47 785.8 502.478 785.819 502.482C785.982 502.518 786.136 502.563 786.312 502.611C786.331 502.615 786.351 502.62 786.369 502.626C786.43 502.645 786.494 502.659 786.558 502.674C786.708 502.71 786.859 502.754 787.028 502.79C787.034 502.791 787.041 502.793 787.049 502.795C787.132 502.814 787.214 502.832 787.285 502.849C787.5 502.889 787.708 502.938 787.934 502.988C787.966 502.994 787.998 503.002 788.029 503.011L788.033 503.012C788.043 503.013 788.053 503.015 788.062 503.017C788.299 503.062 788.545 503.108 788.791 503.154C788.819 503.157 788.846 503.161 788.874 503.165C795.15 504.255 805.383 504.089 812.875 494.219C812.881 494.211 812.888 494.202 812.895 494.193C812.988 494.075 813.083 493.965 813.176 493.837C819.7 484.936 818.805 479.422 816.671 476.329C816.668 476.325 816.665 476.321 816.663 476.318C816.281 475.757 815.865 475.286 815.465 474.901L813.274 473.295L813.326 473.312C813.253 473.272 813.182 473.229 813.115 473.18C812.867 473.001 812.659 472.763 812.515 472.48C812.184 471.827 812.248 471.043 812.681 470.453L827.35 450.439C838.675 434.981 859.512 430.636 875.895 439.521L901.372 406.832L895.979 402.822C895.119 402.181 894.94 400.963 895.58 400.102C896.22 399.243 897.438 399.063 898.299 399.703L903.762 403.766L905.673 401.314L902.537 399.01C901.672 398.376 901.487 397.159 902.121 396.294C902.756 395.429 903.973 395.244 904.838 395.878L908.063 398.248L911.773 393.488L912.505 384.119C912.533 383.758 912.661 383.413 912.875 383.122L921.298 371.629C921.602 371.213 922.06 370.935 922.569 370.856C923.079 370.779 923.599 370.905 924.014 371.21L941.919 384.335C942.785 384.97 942.972 386.185 942.338 387.051L933.915 398.544C933.702 398.835 933.411 399.061 933.077 399.197L924.369 402.722L920.952 407.687L924.179 410.052C925.043 410.685 925.232 411.903 924.598 412.767C923.964 413.632 922.747 413.82 921.882 413.186L918.749 410.89L917.01 413.417L922.518 417.455C923.383 418.089 923.571 419.306 922.936 420.17C922.302 421.036 921.085 421.223 920.221 420.589L914.806 416.62L891.288 450.803C904.706 463.744 906.837 484.931 895.49 500.37L880.801 520.413C880.435 520.912 879.853 521.208 879.234 521.208C878.678 521.208 878.157 520.971 877.795 520.57L875.745 519.068C875.251 518.798 874.671 518.546 874.022 518.342C870.429 517.238 864.912 518.055 858.388 526.951C858.307 527.066 858.226 527.187 858.146 527.308C858.136 527.322 858.126 527.337 858.116 527.352C850.981 537.449 853.87 547.226 856.791 552.882C856.814 552.919 856.835 552.958 856.866 553.018C856.983 553.242 857.1 553.458 857.217 553.673C857.233 553.701 857.247 553.73 857.261 553.759L857.263 553.762C857.278 553.789 857.294 553.816 857.307 553.843C857.397 554.012 857.493 554.174 857.573 554.312C857.625 554.395 857.67 554.471 857.709 554.54C857.799 554.686 857.882 554.832 857.973 554.978C857.99 555.006 858.007 555.035 858.023 555.065C858.047 555.106 858.075 555.148 858.089 555.17C858.183 555.306 858.268 555.434 858.345 555.559C858.409 555.654 858.467 555.748 858.525 555.834C858.532 555.845 858.539 555.856 858.547 555.868C858.593 555.939 858.632 555.999 858.676 556.062C858.748 556.16 858.821 556.268 858.88 556.358C858.936 556.433 858.984 556.501 859.033 556.569C859.063 556.611 859.091 556.654 859.118 556.699C859.154 556.759 859.204 556.818 859.249 556.881C859.259 556.895 859.27 556.909 859.28 556.922C859.285 556.929 859.291 556.936 859.296 556.943C859.367 557.033 859.428 557.123 859.485 557.199C859.528 557.254 859.564 557.302 859.599 557.349C859.608 557.36 859.617 557.373 859.625 557.386C859.637 557.401 859.649 557.418 859.66 557.433C859.728 557.507 859.783 557.574 859.818 557.623C859.847 557.66 859.873 557.694 859.873 557.694C859.931 557.759 859.991 557.829 859.991 557.829C860.007 557.849 860.024 557.868 860.039 557.889C860.331 558.237 860.492 558.684 860.493 559.136C860.494 559.563 860.422 559.706 860.422 559.706C858.777 565.609 856.053 571.311 852.218 576.548C836.176 598.436 806.348 604.219 783.459 590.727L781.275 593.029C780.602 593.74 779.504 593.838 778.714 593.257L773.983 589.779C773.196 589.201 772.961 588.128 773.435 587.273L774.966 584.508ZM873.469 442.634C858.86 435.068 840.515 439.046 830.485 452.736L816.964 471.182L817.864 471.841L818.049 471.995C818.653 472.565 819.291 473.272 819.873 474.127C822.537 477.992 824.455 485.024 816.311 496.135C816.193 496.296 816.076 496.436 815.965 496.576C807.291 507.996 795.473 508.256 788.209 506.995C788.179 506.991 788.149 506.986 788.12 506.982C787.859 506.933 787.599 506.884 787.364 506.84C787.252 506.82 787.142 506.798 787.038 506.77C786.865 506.731 786.702 506.692 786.532 506.662C786.49 506.654 786.45 506.645 786.409 506.635C786.348 506.62 786.279 506.605 786.211 506.589C786.016 506.548 785.841 506.498 785.668 506.457C785.629 506.448 785.592 506.437 785.554 506.427C785.476 506.402 785.392 506.386 785.31 506.365C785.291 506.36 785.272 506.354 785.253 506.349C785.163 506.324 785.083 506.3 784.996 506.281C784.975 506.276 784.953 506.271 784.932 506.266C784.768 506.225 784.605 506.181 784.464 506.132C784.385 506.108 784.31 506.083 784.232 506.061C784.197 506.052 784.162 506.041 784.128 506.029C784.007 505.99 783.887 505.958 783.755 505.912C783.681 505.889 783.612 505.871 783.535 505.845C783.423 505.808 783.319 505.778 783.247 505.753C783.166 505.728 783.093 505.704 783.02 505.68C783.004 505.675 782.987 505.669 782.971 505.663C782.871 505.626 782.777 505.596 782.686 505.562C778.253 508.584 774.243 512.395 770.892 516.964C756.228 536.983 759.19 564.5 776.902 581.012L793.177 551.637C793.262 551.482 793.368 551.342 793.489 551.217C793.753 550.945 794.092 550.754 794.469 550.671C795.014 550.551 795.584 550.671 796.034 551.002L797.509 552.083L810.226 532.943L804.424 528.691C803.559 528.058 803.371 526.841 804.005 525.976C804.639 525.111 805.856 524.923 806.721 525.557L812.483 529.779L828.835 508.2L826.332 506.366C825.907 506.055 825.628 505.586 825.556 505.066C825.484 504.546 825.625 504.018 825.948 503.604L873.469 442.634ZM843.171 513.881L920.434 401.586L914.04 396.902L878.018 443.118C877.99 443.16 877.961 443.201 877.929 443.241L830.252 504.415L833.953 507.127L839.471 511.169L843.171 513.881ZM786.209 587.827C807.29 599.737 834.413 594.267 849.083 574.251C852.434 569.674 854.862 564.707 856.404 559.569C856.4 559.564 856.396 559.559 856.393 559.554C856.342 559.485 856.29 559.407 856.235 559.335C856.2 559.29 856.164 559.238 856.129 559.194C856.094 559.15 856.061 559.105 856.03 559.058C855.972 558.972 855.901 558.877 855.834 558.778C855.806 558.737 855.776 558.696 855.742 558.65C855.721 558.621 855.699 558.592 855.68 558.562C855.646 558.512 855.608 558.447 855.568 558.396C855.548 558.37 855.529 558.343 855.51 558.317C855.428 558.2 855.357 558.094 855.283 557.976C855.235 557.903 855.187 557.824 855.131 557.744C855.11 557.713 855.088 557.681 855.068 557.648C855.009 557.552 854.949 557.463 854.882 557.366C854.866 557.342 854.848 557.317 854.833 557.29C854.775 557.199 854.71 557.098 854.66 557.01C854.57 556.864 854.487 556.717 854.396 556.571C854.382 556.55 854.368 556.528 854.356 556.505C854.33 556.459 854.302 556.411 854.269 556.358C854.258 556.339 854.246 556.321 854.235 556.301C854.123 556.108 854.002 555.904 853.893 555.699C853.848 555.62 853.805 555.541 853.774 555.475C853.66 555.267 853.548 555.057 853.434 554.84C853.413 554.806 853.395 554.772 853.376 554.736C849.98 548.194 846.658 536.852 854.918 525.143C855.025 524.983 855.132 524.824 855.239 524.674C855.244 524.667 855.249 524.66 855.254 524.655C863.402 513.537 870.681 513.247 875.171 514.628C875.175 514.63 875.178 514.631 875.182 514.632C876.158 514.938 877.021 515.326 877.747 515.735L877.944 515.861L878.838 516.517L892.356 498.074L892.357 498.072C902.406 484.398 900.676 465.703 889.054 454.056L845.238 517.733C844.94 518.166 844.479 518.46 843.961 518.548C843.444 518.635 842.912 518.51 842.488 518.199L839.995 516.371L824.335 538.464L830.096 542.685C830.96 543.319 831.149 544.536 830.514 545.401C829.881 546.265 828.664 546.454 827.799 545.819L822.003 541.572L807.645 559.509L809.052 560.542C809.502 560.872 809.789 561.379 809.838 561.935L809.839 561.945C809.89 562.501 809.697 563.051 809.314 563.456L786.209 587.827ZM779.126 585.017L777.662 587.66L779.635 589.111L781.574 587.066C781.616 587.01 781.662 586.957 781.711 586.906L804.971 562.378L803.006 560.936L797.478 556.886L795.511 555.448L779.126 585.017ZM836.859 514.074L831.969 510.497L815.618 532.076L821.2 536.166L836.859 514.074ZM804.507 557.21L818.865 539.273L813.364 535.242L800.646 554.383L804.507 557.21ZM796.429 523.997L794.862 525.255C792.717 526.988 789.568 526.643 787.836 524.497C787.833 524.493 787.829 524.489 787.826 524.486C786.968 523.405 786.623 522.086 786.766 520.815C786.886 519.749 787.849 518.982 788.914 519.102C789.98 519.222 790.748 520.185 790.627 521.25C790.596 521.531 790.677 521.823 790.869 522.068C791.257 522.535 791.948 522.613 792.422 522.232L792.426 522.229L808.563 509.269C808.602 509.236 808.641 509.207 808.682 509.179L810.249 507.921C812.394 506.188 815.543 506.533 817.275 508.679C817.278 508.683 817.282 508.687 817.285 508.69C818.143 509.771 818.489 511.09 818.345 512.361C818.226 513.427 817.263 514.194 816.197 514.074C815.131 513.954 814.364 512.991 814.484 511.926C814.515 511.645 814.435 511.353 814.242 511.108C813.855 510.641 813.163 510.563 812.69 510.944L812.686 510.947L796.549 523.908C796.51 523.94 796.47 523.969 796.429 523.997ZM923.392 398.925L931.107 395.801L938.055 386.321L923.284 375.493L916.337 384.973L915.688 393.275L923.392 398.925ZM838.282 553.467L837.569 555.304C837.346 555.876 837.628 556.52 838.201 556.742L838.211 556.746C838.498 556.86 838.804 556.835 839.067 556.721C840.051 556.295 841.196 556.749 841.622 557.733C842.047 558.717 841.594 559.863 840.61 560.288C839.436 560.796 838.072 560.869 836.788 560.362C834.216 559.359 832.946 556.468 833.947 553.895L841.447 534.6C841.469 534.544 841.494 534.488 841.521 534.435L842.234 532.599C842.456 532.027 842.175 531.382 841.602 531.16L841.592 531.156C841.304 531.042 840.998 531.068 840.736 531.181C839.752 531.607 838.606 531.153 838.181 530.169C837.755 529.185 838.209 528.039 839.193 527.614C840.367 527.107 841.731 527.034 843.015 527.54C845.587 528.544 846.857 531.434 845.856 534.008L838.356 553.302C838.333 553.359 838.309 553.414 838.282 553.467Z" fill="#6D8CB1"/>
  <path fill-rule="evenodd" clip-rule="evenodd" d="M166.21 543.066C163.865 544.725 160.624 544.736 158.244 542.875C155.34 540.612 154.82 536.406 157.093 533.502L187.383 494.702C189.644 491.796 193.851 491.273 196.758 493.547C199.011 495.302 199.83 498.228 199.021 500.807C213.009 510.019 235.04 541.414 242.63 552.661C243.503 553.955 245.266 554.286 246.554 553.403C247.779 552.556 248.144 550.91 247.384 549.632L172.887 424.314C172.88 424.304 172.875 424.293 172.869 424.283C171.99 422.74 171.208 421.171 170.513 419.573C168.307 420.028 166.01 418.923 165.039 416.789L164.854 416.391L166.61 417.502L164.841 416.363C163.718 413.893 164.81 410.957 167.293 409.836L167.391 409.791C165.263 399.496 166.466 388.719 170.902 378.935C170.092 377.838 169.86 376.356 170.423 375.015L176.476 360.539C176.7 360.004 177.152 359.596 177.709 359.429L178.903 359.069C182.694 357.928 186.091 355.779 188.748 352.845L194.79 346.161C195.426 345.459 196.474 345.316 197.274 345.823C198.072 346.331 198.39 347.341 198.025 348.214L184.375 380.858L184.374 380.861C183.836 382.137 182.713 382.989 181.455 383.235C179.527 389.879 179.853 397.013 182.04 403.585C183.936 403.558 185.766 404.631 186.601 406.47L186.788 406.871C186.792 406.878 186.796 406.887 186.8 406.895C187.6 408.656 187.275 410.653 186.123 412.06C186.441 412.556 186.77 413.043 187.117 413.523C187.387 413.892 199.379 430.259 214.842 451.474L217.582 449.764L215.678 447.206C215.038 446.346 215.216 445.127 216.077 444.487C216.936 443.847 218.155 444.025 218.795 444.886L272.579 517.148C273.219 518.008 273.041 519.226 272.181 519.866C271.321 520.507 270.103 520.329 269.462 519.468L265.799 514.546L262.286 516.958C268.288 525.326 273.497 532.651 277.316 538.122C288.79 554.555 284.848 577.211 268.939 589.402C253.404 601.311 231.368 599.447 218.066 585.101C218.066 585.101 192.806 557.861 192.798 557.854C182.108 547.59 170.264 544.033 166.21 543.066ZM173.878 411.111L168.9 413.374L168.896 413.376C168.372 413.612 168.143 414.23 168.377 414.751L168.562 415.148C168.57 415.165 168.577 415.182 168.588 415.205C168.835 415.711 169.441 415.925 169.958 415.693L170.678 415.366C170.711 415.348 170.746 415.331 170.781 415.315L182.707 409.899C182.738 409.884 182.767 409.87 182.797 409.857C183.282 409.604 183.489 409.014 183.268 408.518L183.264 408.51L183.08 408.113L184.836 409.225L183.065 408.081C182.83 407.561 182.219 407.331 181.7 407.557C181.664 407.577 181.626 407.595 181.588 407.613L173.878 411.111ZM195.035 500.257C195.762 499.065 195.494 497.488 194.369 496.612L194.364 496.609C193.15 495.659 191.394 495.875 190.45 497.088L190.448 497.091L160.155 535.894L160.154 535.896C159.204 537.109 159.421 538.866 160.633 539.81L160.638 539.813C161.688 540.636 163.142 540.581 164.131 539.765C164.194 539.684 164.265 539.606 164.342 539.534C164.404 539.477 164.473 539.43 164.528 539.363C164.533 539.358 164.538 539.352 164.542 539.347L164.555 539.329L194.799 500.588C194.824 500.546 194.856 500.494 194.878 500.462C194.926 500.389 194.979 500.32 195.035 500.257ZM178.352 404.81C175.943 397.566 175.583 389.706 177.66 382.371L174.258 380.951C170.438 389.593 169.33 399.049 171.027 408.138L178.352 404.81ZM208.936 477.35L250.724 547.646C252.529 550.681 251.671 554.592 248.759 556.602L248.756 556.604C248.686 556.651 248.616 556.698 248.545 556.744L248.882 557.87C248.92 557.869 248.958 557.869 248.996 557.869C253.382 557.869 256.943 561.43 256.943 565.816C256.943 570.202 253.382 573.763 248.996 573.763C244.61 573.763 241.049 570.202 241.049 565.816C241.049 562.834 242.695 560.234 245.126 558.874L244.799 557.78C242.707 557.729 240.669 556.702 239.409 554.837C238.379 553.31 237.08 551.405 235.569 549.231L234.698 549.99C235.342 551.273 235.705 552.722 235.705 554.255C235.705 559.51 231.439 563.776 226.184 563.776C220.929 563.776 216.663 559.51 216.663 554.255C216.663 549 220.929 544.734 226.184 544.734C228.503 544.734 230.628 545.563 232.28 546.943L233.328 546.031C229.433 540.513 224.565 533.846 219.424 527.363L217.873 528.805C219.074 530.631 219.772 532.817 219.772 535.164C219.772 541.567 214.575 546.764 208.172 546.764C201.77 546.764 196.572 541.567 196.572 535.164C196.572 528.762 201.77 523.564 208.172 523.564C210.826 523.564 213.272 524.457 215.228 525.958L216.982 524.326C216.107 523.251 215.227 522.188 214.345 521.143C208.219 513.874 202.057 507.438 196.981 504.108C190.177 512.825 176.433 530.43 169.109 539.812C174.621 541.389 185.561 545.497 195.539 555.099C195.566 555.124 195.592 555.151 195.616 555.178L220.916 582.458C232.854 595.334 252.632 597.006 266.574 586.318C280.84 575.387 284.417 555.081 274.13 540.347C270.307 534.871 265.09 527.538 259.08 519.157L257.11 520.511C257.355 521.274 257.487 522.088 257.487 522.933C257.487 527.319 253.927 530.88 249.54 530.88C245.154 530.88 241.593 527.319 241.593 522.933C241.593 518.546 245.154 514.985 249.54 514.985C251.679 514.985 253.622 515.833 255.052 517.209L256.814 516C253.668 511.621 250.337 506.998 246.898 502.238L245.377 503.209C245.675 504.044 245.839 504.945 245.839 505.882C245.839 510.269 242.278 513.829 237.891 513.829C233.505 513.829 229.944 510.269 229.944 505.882C229.944 501.496 233.505 497.935 237.891 497.935C239.936 497.935 241.802 498.709 243.212 499.98L244.618 499.083C241.448 494.697 238.202 490.216 234.942 485.721L233.824 486.463C234.055 487.208 234.18 488.001 234.18 488.822C234.18 493.209 230.619 496.769 226.233 496.769C221.847 496.769 218.286 493.209 218.286 488.822C218.286 484.436 221.847 480.875 226.233 480.875C228.397 480.875 230.359 481.742 231.793 483.146L232.658 482.572C229.359 478.027 226.059 473.486 222.819 469.031L222.19 469.452C222.412 470.183 222.531 470.959 222.531 471.762C222.531 476.148 218.971 479.709 214.584 479.709C212.376 479.709 210.377 478.807 208.936 477.35ZM220.18 466.121L220.531 465.886C200.86 438.854 183.978 415.813 183.978 415.813C183.975 415.811 183.973 415.807 183.97 415.804C183.57 415.249 183.19 414.686 182.824 414.114L174.101 418.079C174.733 419.525 175.442 420.947 176.237 422.345L206.97 474.043C206.754 473.32 206.637 472.555 206.637 471.762C206.637 467.376 210.198 463.815 214.584 463.815C216.765 463.815 218.743 464.696 220.18 466.121ZM249.54 518.872C247.299 518.872 245.479 520.691 245.479 522.933C245.479 525.174 247.299 526.994 249.54 526.994C251.781 526.994 253.601 525.174 253.601 522.933C253.601 520.691 251.781 518.872 249.54 518.872ZM237.891 501.821C235.65 501.821 233.83 503.641 233.83 505.882C233.83 508.124 235.65 509.943 237.891 509.943C240.133 509.943 241.952 508.124 241.952 505.882C241.952 503.641 240.133 501.821 237.891 501.821ZM226.233 484.761C223.992 484.761 222.172 486.581 222.172 488.822C222.172 491.063 223.992 492.883 226.233 492.883C228.474 492.883 230.294 491.063 230.294 488.822C230.294 486.581 228.474 484.761 226.233 484.761ZM214.584 467.701C212.343 467.701 210.523 469.521 210.523 471.762C210.523 474.003 212.343 475.823 214.584 475.823C216.826 475.823 218.645 474.003 218.645 471.762C218.645 469.521 216.826 467.701 214.584 467.701ZM263.477 511.427L253.504 498.027L250.18 500.145C253.591 504.869 256.896 509.455 260.019 513.8L263.477 511.427ZM251.177 494.902L241.235 481.543L238.183 483.57C241.458 488.086 244.717 492.587 247.901 496.991L251.177 494.902ZM238.912 478.422L228.898 464.967L226.052 466.869C229.295 471.329 232.598 475.874 235.899 480.421L238.912 478.422ZM248.996 561.755C246.755 561.755 244.935 563.575 244.935 565.816C244.935 568.057 246.755 569.877 248.996 569.877C251.237 569.877 253.057 568.057 253.057 565.816C253.057 563.575 251.237 561.755 248.996 561.755ZM226.184 548.62C223.075 548.62 220.55 551.145 220.55 554.255C220.55 557.365 223.075 559.89 226.184 559.89C229.294 559.89 231.819 557.365 231.819 554.255C231.819 551.145 229.294 548.62 226.184 548.62ZM208.172 527.45C203.915 527.45 200.458 530.907 200.458 535.164C200.458 539.421 203.915 542.878 208.172 542.878C212.429 542.878 215.886 539.421 215.886 535.164C215.886 530.907 212.429 527.45 208.172 527.45ZM217.137 454.622C219.295 457.585 221.511 460.629 223.764 463.725L226.574 461.846L219.91 452.892L217.137 454.622ZM180.717 379.422C180.749 379.416 180.777 379.388 180.791 379.355L190.161 356.947C187.283 359.645 183.821 361.647 180.023 362.79L179.707 362.885L174.008 376.515L174.007 376.518C173.984 376.572 174.013 376.633 174.067 376.655L180.604 379.386C180.643 379.397 180.682 379.409 180.717 379.422Z" fill="#6D8CB1"/>
  <path fill-rule="evenodd" clip-rule="evenodd" d="M203.131 175.597L219.267 241.212C220.448 245.985 217.528 250.809 212.755 251.978L105.167 278.433L105.165 278.434C100.392 279.602 95.5704 276.691 94.4026 271.92L78.2655 206.303L78.2645 206.301C77.0968 201.528 80.0075 196.706 84.7787 195.538L192.366 169.083L192.368 169.082C197.141 167.915 201.963 170.825 203.131 175.597ZM212.803 231.2L199.357 176.525L199.356 176.523C198.698 173.835 195.981 172.199 193.293 172.858L85.7074 199.312L85.7055 199.313C83.0173 199.97 81.3812 202.688 82.0399 205.376L95.4849 260.048L212.803 231.2ZM159.939 208.917H159.942C164.163 210.137 165.477 215.482 162.297 218.51L145.529 234.598C142.36 237.642 137.087 236.107 136.036 231.845L130.488 209.285C129.436 205.011 133.409 201.207 137.626 202.437L159.939 208.917ZM158.994 212.183L136.678 205.703L136.676 205.702C134.969 205.204 133.365 206.745 133.79 208.473L139.337 231.031C139.762 232.754 141.893 233.375 143.174 232.145L159.942 216.056L159.947 216.052C161.231 214.829 160.699 212.675 158.997 212.183H158.994ZM156.554 261.796L183.822 255.091L180.865 243.055L153.598 249.759L156.554 261.796ZM187.596 254.162L202.02 250.616L199.061 238.581L184.639 242.127L187.596 254.162ZM119.802 270.833L139.936 265.882L136.972 253.848L116.845 258.797L119.802 270.833ZM205.794 249.688L211.826 248.205L211.828 248.204C214.515 247.546 216.16 244.832 215.495 242.144L215.494 242.143L213.731 234.974L202.835 237.653L205.794 249.688ZM96.4127 263.821L98.1761 270.991L98.177 270.993C98.8348 273.681 101.552 275.317 104.24 274.659L116.029 271.761L113.072 259.725L96.4127 263.821ZM143.711 264.954L152.781 262.723L149.824 250.688L140.746 252.92L143.711 264.954Z" fill="#6D8CB1"/>
  <path fill-rule="evenodd" clip-rule="evenodd" d="M180.01 88.6202L166.847 100.095C161.019 105.171 160.318 113.982 165.283 119.912L165.284 119.914C170.387 126.025 179.514 126.741 185.523 121.511L202.883 106.385C216.293 94.701 236.631 96.0971 248.314 109.507C259.894 122.793 258.643 142.924 245.502 154.669L220.64 176.897C219.841 177.612 218.612 177.543 217.896 176.744C217.181 175.944 217.25 174.715 218.05 174L242.912 151.772C254.467 141.443 255.567 123.743 245.384 112.06C235.111 100.269 217.228 99.0418 205.437 109.315L188.075 124.442C180.424 131.102 168.8 130.187 162.303 122.406C155.979 114.852 156.872 103.63 164.294 97.1648L177.464 85.6842C174.986 82.4373 175.336 77.8119 178.357 74.975L214.668 40.8762C214.778 40.6596 214.93 40.4604 215.125 40.2913C215.281 40.1553 215.452 40.0494 215.632 39.9717L228.739 27.6634C228.504 26.3275 228.38 24.9528 228.38 23.5499C228.38 17.4876 230.676 11.9576 234.445 7.78197C234.595 7.43902 234.847 7.13687 235.188 6.92313C235.241 6.88913 235.296 6.85901 235.351 6.83084C239.608 2.60954 245.467 0 251.93 0C264.927 0 275.48 10.5528 275.48 23.5499C275.48 31.1832 271.841 37.9723 266.204 42.2772C266.171 42.3238 266.136 42.3685 266.098 42.4132C265.848 42.7066 265.531 42.9077 265.187 43.0116C261.409 45.591 256.845 47.0998 251.93 47.0998C249.374 47.0998 246.912 46.6918 244.607 45.9369L230.664 57.2028C230.561 57.3777 230.429 57.538 230.269 57.6779C230.07 57.8508 229.845 57.9771 229.609 58.0558L190.886 89.3478L190.883 89.3498C187.612 91.9836 182.87 91.6484 180.01 88.6202ZM216.337 44.6409L181.017 77.808C179.391 79.3352 179.265 81.867 180.733 83.5459L180.734 83.5478L181.657 84.6068L182.717 85.8222C184.179 87.5029 186.712 87.7186 188.446 86.3235C188.446 86.3235 210.693 68.3462 226.123 55.8766L216.337 44.6409ZM229.906 31.8993L219.172 41.9789L229.148 53.4323C235.81 48.049 240.587 44.1891 240.587 44.1882C238.226 42.8921 236.05 41.1686 234.175 39.0225L234.173 39.0206C232.286 36.855 230.867 34.4418 229.906 31.8993ZM236.068 11.9323C233.678 15.1879 232.266 19.2052 232.266 23.5499C232.266 25.048 232.435 26.5073 232.752 27.9092C232.814 28.1822 232.882 28.4532 232.955 28.7224C234.325 33.752 237.642 37.981 242.046 40.5488C242.973 41.087 243.936 41.5456 244.927 41.9225C244.97 41.9391 245.013 41.9565 245.054 41.976C247.195 42.7765 249.512 43.2137 251.93 43.2137C255.313 43.2137 258.497 42.3578 261.278 40.8509C251.586 32.4083 243.107 22.6785 236.068 11.9323ZM264.599 38.5844C268.876 34.9761 271.594 29.5783 271.594 23.5499C271.594 12.6969 262.783 3.88612 251.93 3.88612C246.869 3.88612 242.251 5.80296 238.765 8.94878C245.898 20.0203 254.597 30.0028 264.599 38.5844Z" fill="#6D8CB1"/>
  <path fill-rule="evenodd" clip-rule="evenodd" d="M1015.48 262.517L1002.92 313.252C1002.9 313.339 1002.87 313.424 1002.83 313.504C1000.35 322.452 988.752 327.519 976.594 324.426C964.314 321.303 956.509 311.138 958.828 302.021C961.147 292.905 972.86 287.704 985.14 290.828C993.05 292.84 999.104 297.774 1001.79 303.467L1012.17 261.27C1012.12 261.111 1012.63 258.714 1014.87 258.714L1067.95 255.663C1069.02 255.603 1069.94 256.423 1070 257.494C1070.01 257.648 1069.96 258.238 1069.92 258.386L1057.01 310.592C1056.99 310.679 1056.96 310.764 1056.92 310.844C1054.44 319.792 1042.84 324.859 1030.68 321.766C1018.4 318.643 1010.6 308.478 1012.92 299.361C1015.24 290.245 1026.95 285.044 1039.23 288.168C1047.14 290.18 1053.19 295.114 1055.88 300.807L1066.01 259.665L1015.48 262.517ZM1038.37 291.57C1032.13 289.986 1026.03 290.785 1021.72 293.382C1019.03 295.004 1017.06 297.335 1016.32 300.226C1015.59 303.118 1016.2 306.107 1017.79 308.819C1020.34 313.158 1025.32 316.778 1031.55 318.364C1037.78 319.949 1043.89 319.149 1048.2 316.553C1050.89 314.93 1052.86 312.599 1053.59 309.708C1054.33 306.816 1053.71 303.827 1052.12 301.115C1049.58 296.776 1044.6 293.156 1038.37 291.57ZM984.275 294.23C978.043 292.646 971.937 293.445 967.629 296.042C964.937 297.664 962.966 299.995 962.231 302.886C961.495 305.778 962.113 308.767 963.703 311.48C966.246 315.819 971.228 319.438 977.459 321.024C983.691 322.609 989.797 321.809 994.105 319.213C996.797 317.59 998.768 315.259 999.503 312.368C1000.24 309.476 999.621 306.487 998.032 303.775C995.488 299.436 990.506 295.816 984.275 294.23Z" fill="#6D8CB1"/>
  <path fill-rule="evenodd" clip-rule="evenodd" d="M898.6 169.47L904.373 222.014C904.383 222.113 904.384 222.212 904.378 222.308C905.12 232.56 894.908 242.155 881.083 243.452C867.118 244.761 855.202 237.066 854.23 226.698C853.258 216.332 863.536 206.555 877.5 205.246C886.495 204.403 894.64 207.296 899.558 212.232L894.259 165.534C894.159 164.465 894.945 163.518 896.013 163.419C896.617 163.362 897.182 163.589 897.577 163.99L911.972 174.426C912.826 175.073 912.997 176.292 912.349 177.148C911.702 178.003 910.483 178.172 909.627 177.526L898.6 169.47ZM877.863 209.115C870.777 209.779 864.708 212.883 861.182 217.192C858.979 219.885 857.79 223.048 858.099 226.336C858.407 229.624 860.163 232.511 862.829 234.748C867.094 238.326 873.634 240.247 880.719 239.583C887.806 238.918 893.875 235.814 897.401 231.506C899.604 228.812 900.792 225.649 900.484 222.362C900.175 219.075 898.42 216.187 895.754 213.951C891.49 210.372 884.949 208.45 877.863 209.115Z" fill="#6D8CB1"/>
  <path fill-rule="evenodd" clip-rule="evenodd" d="M53.7145 357.961C57.518 367.509 50.6813 379.742 37.8931 385.153C24.9766 390.619 11.2925 386.881 7.23445 377.292C3.17637 367.703 10.0208 355.279 22.9383 349.813C31.2585 346.292 39.8973 346.59 46.0763 349.811L31.9998 316.494C31.582 315.507 32.0454 314.365 33.0335 313.949C34.0205 313.531 35.1621 313.994 35.5789 314.982L53.6202 357.681C53.6591 357.772 53.6911 357.867 53.7145 357.961ZM24.4529 353.392C17.898 356.166 13.05 360.958 10.9904 366.131C9.70408 369.363 9.52629 372.738 10.8126 375.779C12.0999 378.82 14.6453 381.042 17.862 382.369C23.0092 384.491 29.8245 384.348 36.3784 381.574C42.9334 378.8 47.7813 374.009 49.84 368.836C51.1273 365.603 51.3051 362.229 50.0178 359.188C48.7315 356.147 46.1851 353.925 42.9693 352.598C37.8222 350.475 31.0069 350.618 24.4529 353.392Z" fill="#6D8CB1"/>
  <path fill-rule="evenodd" clip-rule="evenodd" d="M888.632 319.181H882.832C881.759 319.181 880.889 318.31 880.889 317.238C880.889 316.165 881.759 315.295 882.832 315.295H888.632V309.495C888.632 308.422 889.502 307.552 890.575 307.552C891.647 307.552 892.518 308.422 892.518 309.495V315.295H898.318C899.391 315.295 900.261 316.165 900.261 317.238C900.261 318.31 899.391 319.181 898.318 319.181H892.518V324.981C892.518 326.054 891.647 326.924 890.575 326.924C889.502 326.924 888.632 326.054 888.632 324.981V319.181Z" fill="#6D8CB1"/>
  <path fill-rule="evenodd" clip-rule="evenodd" d="M925.007 272.024H920.8C919.728 272.024 918.857 271.154 918.857 270.081C918.857 269.009 919.728 268.138 920.8 268.138H925.007V263.931C925.007 262.859 925.878 261.988 926.95 261.988C928.023 261.988 928.893 262.859 928.893 263.931V268.138H933.09C934.163 268.138 935.033 269.009 935.033 270.081C935.033 271.154 934.163 272.024 933.09 272.024H928.893V276.221C928.893 277.294 928.023 278.164 926.95 278.164C925.878 278.164 925.007 277.294 925.007 276.221V272.024Z" fill="#6D8CB1"/>
  <path fill-rule="evenodd" clip-rule="evenodd" d="M1003.06 389.313H995.473C994.401 389.313 993.53 388.442 993.53 387.37C993.53 386.297 994.401 385.427 995.473 385.427H1003.06V377.839C1003.06 376.766 1003.93 375.896 1005 375.896C1006.08 375.896 1006.95 376.766 1006.95 377.839V385.427H1014.53C1015.6 385.427 1016.47 386.297 1016.47 387.37C1016.47 388.442 1015.6 389.313 1014.53 389.313H1006.95V396.891C1006.95 397.963 1006.08 398.834 1005 398.834C1003.93 398.834 1003.06 397.963 1003.06 396.891V389.313Z" fill="#6D8CB1"/>
  <path fill-rule="evenodd" clip-rule="evenodd" d="M9.53072 282.608H1.94306C0.870492 282.608 0 281.738 0 280.665C0 279.593 0.870492 278.722 1.94306 278.722H9.53072V271.134C9.53072 270.062 10.4012 269.191 11.4738 269.191C12.5464 269.191 13.4168 270.062 13.4168 271.134V278.722H21.0045C22.0771 278.722 22.9476 279.593 22.9476 280.665C22.9476 281.738 22.0771 282.608 21.0045 282.608H13.4168V290.186C13.4168 291.259 12.5464 292.129 11.4738 292.129C10.4012 292.129 9.53072 291.259 9.53072 290.186V282.608Z" fill="#6D8CB1"/>
  <path fill-rule="evenodd" clip-rule="evenodd" d="M132.689 323.947H127.249C126.176 323.947 125.306 323.077 125.306 322.004C125.306 320.931 126.176 320.061 127.249 320.061H132.689V314.62C132.689 313.548 133.56 312.677 134.632 312.677C135.705 312.677 136.575 313.548 136.575 314.62V320.061H142.016C143.089 320.061 143.959 320.931 143.959 322.004C143.959 323.077 143.089 323.947 142.016 323.947H136.575V329.388C136.575 330.46 135.705 331.331 134.632 331.331C133.56 331.331 132.689 330.46 132.689 329.388V323.947Z" fill="#6D8CB1"/>
  <path fill-rule="evenodd" clip-rule="evenodd" d="M90.0751 411.264L89.4747 411.628C88.5576 412.184 87.3616 411.891 86.8059 410.974C86.2502 410.057 86.5426 408.861 87.4597 408.306L89.0288 407.353L87.4743 401.541C87.1974 400.504 87.8134 399.438 88.849 399.161C89.8857 398.885 90.9514 399.501 91.2283 400.536L92.4903 405.255L99.7623 400.847L98.1806 394.934C97.9037 393.898 98.5197 392.832 99.5553 392.555C100.592 392.278 101.658 392.894 101.935 393.93L103.224 398.748L103.82 398.386C104.737 397.83 105.933 398.123 106.489 399.04C107.045 399.957 106.752 401.153 105.835 401.709L104.269 402.658L105.726 408.106L106.326 407.742C107.243 407.186 108.439 407.479 108.996 408.395C109.551 409.312 109.259 410.508 108.343 411.065L106.773 412.017L108.327 417.829C108.604 418.866 107.988 419.932 106.953 420.209C105.916 420.486 104.85 419.87 104.573 418.834L103.311 414.117L96.0413 418.53L97.621 424.436C97.8979 425.472 97.2819 426.538 96.2463 426.815C95.2097 427.092 94.1439 426.476 93.867 425.44L92.5807 420.63L91.9822 420.994C91.0651 421.549 89.8691 421.257 89.3125 420.341C88.7567 419.424 89.0492 418.228 89.9653 417.671L91.5343 416.719L90.0751 411.264ZM100.808 404.757L93.5367 409.165L94.9949 414.619L102.266 410.207L100.808 404.757Z" fill="#6D8CB1"/>
</svg>
