<svg width="850" height="476" viewBox="0 0 850 476" fill="none" xmlns="http://www.w3.org/2000/svg">
  <path fill-rule="evenodd" clip-rule="evenodd" d="M656.628 14.8903L631.868 32.2036C629.563 33.822 628.999 36.9994 630.612 39.3109C630.614 39.3139 630.616 39.317 630.618 39.3201L639.286 51.9464C639.768 52.6487 639.589 53.6103 638.887 54.0927C638.184 54.5751 637.223 54.396 636.74 53.6937C636.74 53.6937 628.074 41.0682 628.074 41.069C625.495 37.3613 626.399 32.2707 630.095 29.6768L630.098 29.6752L656.608 11.1371L656.61 11.1364C657.951 10.2002 659.615 9.84903 661.213 10.1709L685.114 14.932C686.282 15.1643 687.345 15.7346 688.175 16.5619C688.43 16.8151 688.664 17.0914 688.871 17.3901L689.142 17.7759C689.164 17.8076 689.185 17.8392 689.204 17.8724L718.099 59.2057L718.1 59.2073C720.686 62.9157 719.783 68.0117 716.085 70.6072L716.083 70.6087L677.548 97.5515L677.546 97.5523C673.842 100.136 668.752 99.237 666.153 95.5472L643.398 63.956C642.9 63.2645 643.056 62.299 643.748 61.8012C644.439 61.3034 645.405 61.4601 645.903 62.1516L668.662 93.7482C668.666 93.7536 668.669 93.7582 668.673 93.7636C670.292 96.0697 673.468 96.6331 675.781 95.0208L714.312 68.0804C716.618 66.462 717.18 63.2853 715.569 60.9731L687.498 20.8198L687.241 21.002L687.234 21.0066L676.507 28.5075C672.668 31.1964 667.375 30.254 664.686 26.4152L656.683 14.969L656.628 14.8903ZM659.261 13.268L667.215 24.6448C668.926 27.0874 672.294 27.6894 674.736 25.9784L685.462 18.479L685.568 18.4034C685.256 18.1966 684.903 18.0499 684.528 17.9758L660.625 13.2132H660.622C660.167 13.1214 659.699 13.143 659.261 13.268ZM656.262 62.7983C655.565 63.2869 654.601 63.1163 654.113 62.4179C653.624 61.7202 653.795 60.757 654.493 60.2685L688.984 36.1504C689.682 35.6619 690.645 35.8325 691.134 36.5309C691.622 37.2286 691.452 38.1918 690.753 38.6803L656.262 62.7983ZM663.147 72.6385C662.448 73.127 661.485 72.9565 660.997 72.258C660.509 71.5596 660.679 70.5964 661.378 70.1086L695.868 45.9983C696.567 45.5098 697.53 45.6803 698.018 46.3788C698.506 47.0773 698.336 48.0404 697.637 48.5282L663.147 72.6385ZM670.023 82.4864C669.325 82.9749 668.361 82.8044 667.874 82.1059C667.385 81.4074 667.556 80.4443 668.254 79.9565L696.146 60.4614C696.845 59.9729 697.808 60.1434 698.296 60.8419C698.784 61.5403 698.614 62.5035 697.915 62.9913L670.023 82.4864ZM649.378 52.9505C648.68 53.439 647.716 53.2684 647.229 52.57C646.74 51.8715 646.911 50.9084 647.609 50.4206L661.617 40.6267C662.315 40.1382 663.279 40.3088 663.766 41.0072C664.255 41.7057 664.084 42.6689 663.386 43.1566L649.378 52.9505Z" fill="#6D8CB1"/>
  <path fill-rule="evenodd" clip-rule="evenodd" d="M615.626 464.329C599.924 450.222 597.161 426.238 609.9 408.848C612.945 404.696 616.624 401.274 620.696 398.613C620.696 398.613 621.069 398.359 621.563 398.346C621.776 398.34 621.978 398.389 622.162 398.466C622.185 398.475 622.209 398.484 622.229 398.493C622.272 398.508 622.314 398.524 622.319 398.528C622.351 398.54 622.395 398.557 622.433 398.573L622.452 398.579C622.471 398.585 622.489 398.592 622.507 398.598C622.552 398.615 622.602 398.64 622.653 398.657C622.669 398.662 622.685 398.667 622.701 398.674C622.701 398.674 622.794 398.705 622.847 398.726C622.903 398.749 622.96 398.766 623.035 398.792C623.051 398.796 623.066 398.802 623.083 398.806C623.118 398.816 623.153 398.827 623.186 398.84C623.259 398.866 623.331 398.885 623.41 398.911C623.479 398.935 623.541 398.95 623.61 398.973C623.623 398.977 623.636 398.982 623.65 398.986C623.72 399.012 623.795 399.03 623.874 399.056C623.921 399.072 623.968 399.088 624.022 399.102C624.073 399.114 624.124 399.131 624.174 399.148C624.202 399.158 624.232 399.165 624.248 399.168C624.377 399.197 624.499 399.232 624.639 399.27C624.654 399.274 624.67 399.278 624.684 399.283C624.733 399.297 624.784 399.309 624.834 399.32C624.954 399.349 625.073 399.384 625.208 399.413C625.213 399.414 625.219 399.415 625.225 399.417C625.29 399.432 625.356 399.446 625.412 399.459C625.583 399.492 625.748 399.53 625.928 399.57C625.953 399.575 625.979 399.581 626.003 399.588L626.007 399.589C626.014 399.59 626.022 399.591 626.03 399.593C626.218 399.629 626.413 399.665 626.609 399.702C626.631 399.704 626.653 399.708 626.674 399.711C631.66 400.577 639.789 400.445 645.741 392.604C645.746 392.597 645.751 392.591 645.756 392.584C645.83 392.489 645.906 392.402 645.98 392.3C651.163 385.23 650.451 380.849 648.756 378.392C648.754 378.389 648.752 378.386 648.75 378.384C648.447 377.938 648.116 377.564 647.798 377.258L646.057 375.982L646.099 375.996C646.041 375.964 645.985 375.929 645.932 375.891C645.734 375.749 645.569 375.56 645.455 375.334C645.191 374.816 645.242 374.193 645.587 373.724L657.24 357.826C666.236 345.546 682.788 342.094 695.803 349.153L716.042 323.185L711.758 319.999C711.075 319.49 710.932 318.522 711.441 317.838C711.949 317.155 712.917 317.013 713.601 317.521L717.941 320.749L719.459 318.801L716.967 316.971C716.281 316.467 716.133 315.5 716.637 314.813C717.141 314.126 718.108 313.979 718.795 314.483L721.357 316.365L724.305 312.584L724.886 305.141C724.908 304.855 725.01 304.581 725.18 304.349L731.871 295.219C732.113 294.889 732.476 294.668 732.881 294.606C733.286 294.544 733.699 294.644 734.028 294.887L748.252 305.313C748.94 305.817 749.089 306.783 748.585 307.47L741.894 316.601C741.725 316.832 741.494 317.011 741.228 317.119L734.311 319.919L731.596 323.864L734.16 325.742C734.846 326.245 734.996 327.212 734.492 327.899C733.989 328.586 733.022 328.736 732.335 328.232L729.846 326.408L728.465 328.416L732.84 331.623C733.528 332.127 733.676 333.093 733.172 333.78C732.668 334.468 731.702 334.617 731.015 334.113L726.714 330.96L708.031 358.114C718.691 368.395 720.383 385.225 711.37 397.491L699.7 413.412C699.409 413.809 698.947 414.044 698.456 414.044C698.014 414.044 697.6 413.855 697.313 413.537L695.684 412.344C695.291 412.13 694.831 411.929 694.316 411.767C691.461 410.89 687.079 411.539 681.896 418.606C681.832 418.697 681.767 418.794 681.703 418.89C681.696 418.901 681.688 418.913 681.679 418.924C676.012 426.945 678.307 434.713 680.628 439.205C680.645 439.235 680.662 439.266 680.687 439.313C680.78 439.491 680.873 439.663 680.966 439.834C680.978 439.857 680.99 439.879 681 439.902L681.002 439.904C681.014 439.926 681.027 439.948 681.037 439.969C681.108 440.103 681.185 440.232 681.248 440.341C681.29 440.408 681.325 440.468 681.356 440.523C681.428 440.638 681.493 440.755 681.566 440.871C681.58 440.893 681.593 440.916 681.606 440.939C681.625 440.972 681.647 441.006 681.659 441.023C681.733 441.131 681.801 441.233 681.862 441.332C681.913 441.408 681.959 441.482 682.004 441.551C682.011 441.559 682.016 441.568 682.022 441.578C682.058 441.634 682.089 441.682 682.125 441.732C682.182 441.81 682.24 441.896 682.287 441.967C682.331 442.027 682.369 442.081 682.408 442.135C682.432 442.168 682.454 442.202 682.476 442.237C682.504 442.285 682.544 442.332 682.58 442.383C682.588 442.393 682.596 442.404 682.604 442.415C682.609 442.42 682.613 442.426 682.617 442.431C682.674 442.503 682.722 442.575 682.767 442.635C682.802 442.679 682.83 442.717 682.858 442.754C682.865 442.763 682.872 442.773 682.879 442.783C682.888 442.795 682.897 442.809 682.907 442.821C682.961 442.88 683.004 442.933 683.032 442.971C683.055 443.002 683.076 443.028 683.076 443.028C683.122 443.079 683.169 443.136 683.169 443.136C683.182 443.151 683.195 443.167 683.208 443.183C683.439 443.459 683.567 443.815 683.568 444.174C683.569 444.513 683.512 444.626 683.512 444.626C682.205 449.315 680.041 453.846 676.995 458.006C664.251 475.393 640.555 479.987 622.373 469.269L620.638 471.098C620.103 471.663 619.231 471.741 618.604 471.279L614.845 468.516C614.22 468.057 614.033 467.204 614.41 466.525L615.626 464.329ZM693.876 351.625C682.271 345.615 667.698 348.775 659.73 359.65L648.989 374.303L649.704 374.827L649.851 374.949C650.331 375.402 650.838 375.964 651.3 376.643C653.416 379.713 654.94 385.3 648.47 394.126C648.377 394.254 648.283 394.365 648.195 394.477C641.305 403.548 631.917 403.755 626.146 402.753C626.122 402.75 626.098 402.746 626.075 402.743C625.868 402.704 625.662 402.665 625.475 402.63C625.386 402.614 625.299 402.597 625.216 402.574C625.078 402.543 624.949 402.512 624.814 402.489C624.781 402.482 624.749 402.475 624.716 402.467C624.668 402.455 624.613 402.443 624.559 402.431C624.404 402.398 624.265 402.358 624.127 402.326C624.096 402.319 624.067 402.31 624.037 402.302C623.975 402.282 623.908 402.269 623.843 402.252C623.828 402.249 623.813 402.244 623.798 402.24C623.727 402.22 623.663 402.201 623.594 402.186C623.577 402.182 623.56 402.178 623.543 402.174C623.413 402.141 623.283 402.107 623.171 402.068C623.109 402.049 623.049 402.029 622.987 402.012C622.959 402.004 622.931 401.995 622.904 401.986C622.808 401.954 622.713 401.929 622.608 401.893C622.549 401.874 622.494 401.86 622.433 401.839C622.344 401.81 622.262 401.786 622.205 401.766C622.14 401.747 622.082 401.728 622.024 401.708C622.011 401.704 621.998 401.7 621.985 401.695C621.905 401.666 621.831 401.642 621.759 401.615C618.237 404.015 615.052 407.043 612.389 410.672C600.741 426.576 603.094 448.435 617.164 461.552L630.092 438.216C630.16 438.093 630.244 437.982 630.341 437.883C630.55 437.667 630.819 437.515 631.119 437.449C631.552 437.354 632.005 437.449 632.362 437.712L633.534 438.571L643.636 423.366L639.027 419.989C638.34 419.485 638.191 418.518 638.695 417.831C639.198 417.145 640.165 416.995 640.852 417.499L645.429 420.853L658.419 403.71L656.431 402.253C656.093 402.006 655.871 401.634 655.814 401.221C655.757 400.808 655.869 400.389 656.126 400.06L693.876 351.625ZM669.807 408.224L731.184 319.017L726.105 315.296L697.49 352.01C697.468 352.043 697.445 352.076 697.419 352.108L659.545 400.703L662.485 402.858L666.868 406.069L669.807 408.224ZM624.557 466.965C641.304 476.426 662.85 472.081 674.504 456.181C677.166 452.545 679.095 448.599 680.32 444.517C680.316 444.513 680.313 444.51 680.311 444.506C680.27 444.451 680.229 444.389 680.185 444.332C680.158 444.296 680.129 444.255 680.101 444.219C680.073 444.185 680.047 444.149 680.022 444.111C679.977 444.043 679.921 443.968 679.867 443.889C679.845 443.857 679.821 443.824 679.794 443.788C679.777 443.765 679.76 443.742 679.745 443.718C679.718 443.678 679.688 443.627 679.656 443.586C679.64 443.565 679.625 443.544 679.61 443.523C679.545 443.43 679.488 443.346 679.429 443.252C679.391 443.194 679.353 443.131 679.309 443.068C679.292 443.043 679.275 443.018 679.258 442.991C679.211 442.915 679.164 442.845 679.111 442.768C679.098 442.748 679.084 442.728 679.072 442.707C679.026 442.635 678.974 442.555 678.934 442.484C678.862 442.369 678.797 442.252 678.724 442.136C678.714 442.119 678.703 442.102 678.693 442.084C678.672 442.047 678.65 442.009 678.624 441.967C678.615 441.952 678.605 441.937 678.597 441.922C678.507 441.768 678.412 441.606 678.325 441.443C678.289 441.381 678.255 441.317 678.23 441.266C678.14 441.1 678.051 440.933 677.96 440.761C677.944 440.734 677.929 440.707 677.915 440.678C675.217 435.481 672.578 426.472 679.14 417.17C679.224 417.043 679.309 416.916 679.394 416.797C679.398 416.792 679.402 416.787 679.406 416.782C685.879 407.95 691.662 407.72 695.228 408.817C695.231 408.819 695.233 408.819 695.236 408.82C696.012 409.063 696.698 409.371 697.275 409.696L697.431 409.797L698.142 410.317L708.88 395.666L708.881 395.665C716.863 384.803 715.489 369.951 706.257 360.699L671.45 411.284C671.213 411.627 670.847 411.861 670.435 411.93C670.024 412 669.602 411.9 669.265 411.653L667.284 410.202L654.845 427.752L659.421 431.105C660.108 431.609 660.257 432.576 659.753 433.262C659.25 433.949 658.283 434.099 657.596 433.595L652.992 430.221L641.586 444.47L642.704 445.291C643.061 445.553 643.289 445.956 643.328 446.397L643.329 446.405C643.369 446.846 643.216 447.283 642.912 447.605L624.557 466.965ZM618.931 464.733L617.768 466.833L619.335 467.985L620.876 466.361C620.909 466.317 620.945 466.274 620.984 466.234L639.462 446.749L637.9 445.604L633.51 442.386L631.947 441.244L618.931 464.733ZM664.794 408.376L660.909 405.536L647.92 422.677L652.354 425.927L664.794 408.376ZM639.094 442.643L650.499 428.395L646.129 425.193L636.026 440.398L639.094 442.643ZM632.676 416.259L631.431 417.259C629.727 418.636 627.226 418.362 625.85 416.657C625.848 416.654 625.844 416.651 625.842 416.648C625.161 415.789 624.886 414.741 625 413.732C625.095 412.885 625.86 412.275 626.707 412.371C627.553 412.466 628.163 413.231 628.067 414.078C628.042 414.301 628.107 414.532 628.259 414.727C628.567 415.098 629.117 415.16 629.493 414.857L629.496 414.855L642.315 404.559C642.346 404.534 642.377 404.511 642.41 404.488L643.655 403.489C645.359 402.112 647.86 402.386 649.236 404.091C649.239 404.094 649.242 404.097 649.244 404.1C649.925 404.958 650.2 406.006 650.086 407.016C649.991 407.862 649.226 408.472 648.38 408.376C647.533 408.282 646.923 407.517 647.019 406.67C647.044 406.447 646.98 406.215 646.827 406.02C646.519 405.65 645.969 405.587 645.593 405.891L645.59 405.893L632.771 416.188C632.74 416.214 632.709 416.237 632.676 416.259ZM733.534 316.903L739.663 314.422L745.183 306.891L733.449 298.289L727.93 305.82L727.414 312.415L733.534 316.903ZM665.924 439.67L665.357 441.129C665.18 441.584 665.404 442.095 665.86 442.272L665.867 442.275C666.096 442.366 666.339 442.345 666.547 442.255C667.329 441.917 668.239 442.278 668.577 443.059C668.915 443.841 668.555 444.751 667.773 445.089C666.841 445.492 665.757 445.55 664.737 445.148C662.694 444.351 661.685 442.054 662.48 440.01L668.438 424.683C668.456 424.638 668.475 424.594 668.497 424.551L669.063 423.093C669.24 422.638 669.016 422.126 668.561 421.95L668.553 421.947C668.325 421.856 668.082 421.876 667.873 421.967C667.091 422.305 666.181 421.944 665.843 421.163C665.505 420.381 665.866 419.471 666.648 419.133C667.58 418.73 668.663 418.672 669.684 419.074C671.727 419.871 672.735 422.167 671.94 424.212L665.982 439.539C665.965 439.584 665.945 439.628 665.924 439.67Z" fill="#6D8CB1"/>
  <path fill-rule="evenodd" clip-rule="evenodd" d="M132.036 431.407C130.173 432.725 127.599 432.734 125.709 431.256C123.402 429.458 122.988 426.116 124.794 423.81L148.856 392.987C150.652 390.679 153.994 390.264 156.303 392.07C158.093 393.464 158.744 395.788 158.102 397.837C169.214 405.155 186.714 430.095 192.744 439.03C193.437 440.057 194.838 440.32 195.861 439.619C196.834 438.946 197.124 437.638 196.521 436.623L137.341 337.072C137.335 337.063 137.331 337.055 137.326 337.047C136.628 335.822 136.007 334.574 135.455 333.306C133.703 333.667 131.877 332.789 131.106 331.094L130.959 330.777L132.354 331.66L130.949 330.756C130.057 328.793 130.924 326.461 132.897 325.57L132.975 325.535C131.284 317.356 132.24 308.795 135.764 301.023C135.12 300.152 134.936 298.974 135.384 297.909L140.192 286.409C140.37 285.984 140.729 285.66 141.171 285.527L142.12 285.242C145.131 284.335 147.83 282.628 149.941 280.297L154.741 274.988C155.245 274.43 156.078 274.316 156.713 274.719C157.348 275.123 157.6 275.925 157.31 276.619L146.466 302.55L146.466 302.553C146.039 303.567 145.147 304.244 144.147 304.439C142.615 309.717 142.874 315.384 144.612 320.604C146.118 320.583 147.571 321.436 148.235 322.897L148.383 323.215C148.386 323.221 148.39 323.228 148.393 323.234C149.029 324.633 148.77 326.219 147.855 327.337C148.108 327.731 148.369 328.118 148.645 328.499C148.86 328.792 158.386 341.794 170.669 358.647L172.846 357.289L171.334 355.257C170.825 354.573 170.966 353.606 171.65 353.097C172.333 352.588 173.301 352.73 173.81 353.413L216.535 410.818C217.044 411.501 216.903 412.469 216.219 412.978C215.536 413.486 214.568 413.345 214.059 412.661L211.149 408.751L208.358 410.667C213.126 417.315 217.265 423.134 220.298 427.48C229.413 440.534 226.282 458.532 213.643 468.216C201.303 477.677 183.797 476.196 173.231 464.799C173.231 464.799 153.164 443.16 153.158 443.155C144.666 435.001 135.257 432.176 132.036 431.407ZM138.128 326.583L134.173 328.381L134.17 328.382C133.754 328.57 133.572 329.061 133.758 329.474L133.905 329.79C133.911 329.804 133.917 329.817 133.926 329.836C134.122 330.238 134.603 330.408 135.014 330.223L135.586 329.963C135.612 329.949 135.64 329.935 135.668 329.923L145.142 325.62C145.166 325.609 145.189 325.597 145.213 325.587C145.598 325.386 145.762 324.917 145.587 324.524L145.584 324.517L145.438 324.202L146.833 325.085L145.426 324.176C145.239 323.763 144.754 323.58 144.342 323.76C144.313 323.776 144.283 323.79 144.253 323.804L138.128 326.583ZM154.935 397.4C155.512 396.453 155.299 395.201 154.406 394.504L154.402 394.502C153.438 393.747 152.042 393.919 151.292 394.883L151.291 394.885L127.227 425.71L127.226 425.711C126.471 426.675 126.643 428.071 127.606 428.821L127.61 428.823C128.445 429.477 129.599 429.434 130.385 428.785C130.435 428.72 130.491 428.659 130.552 428.602C130.602 428.556 130.656 428.519 130.7 428.466C130.704 428.462 130.708 428.457 130.711 428.453L130.722 428.439L154.747 397.663C154.768 397.629 154.793 397.588 154.81 397.563C154.849 397.505 154.89 397.45 154.935 397.4ZM141.682 321.578C139.768 315.823 139.482 309.58 141.133 303.753L138.43 302.624C135.395 309.489 134.515 317.001 135.863 324.222L141.682 321.578ZM165.978 379.203L199.174 435.046C200.608 437.457 199.926 440.563 197.613 442.16L197.61 442.162C197.555 442.2 197.499 442.237 197.443 442.273L197.711 443.167C197.741 443.167 197.771 443.167 197.801 443.167C201.286 443.167 204.114 445.995 204.114 449.48C204.114 452.964 201.286 455.793 197.801 455.793C194.316 455.793 191.488 452.964 191.488 449.48C191.488 447.111 192.795 445.045 194.727 443.965L194.467 443.096C192.805 443.055 191.186 442.24 190.185 440.758C189.367 439.545 188.335 438.032 187.135 436.305L186.443 436.907C186.955 437.927 187.243 439.078 187.243 440.296C187.243 444.47 183.854 447.859 179.68 447.859C175.505 447.859 172.116 444.47 172.116 440.296C172.116 436.121 175.505 432.732 179.68 432.732C181.521 432.732 183.21 433.391 184.522 434.487L185.355 433.762C182.261 429.38 178.393 424.083 174.309 418.933L173.077 420.078C174.031 421.529 174.586 423.266 174.586 425.13C174.586 430.216 170.457 434.345 165.371 434.345C160.285 434.345 156.156 430.216 156.156 425.13C156.156 420.044 160.285 415.915 165.371 415.915C167.479 415.915 169.422 416.624 170.976 417.817L172.369 416.52C171.674 415.667 170.975 414.822 170.275 413.992C165.408 408.217 160.513 403.104 156.481 400.459C151.075 407.384 140.158 421.369 134.339 428.822C138.718 430.075 147.409 433.339 155.336 440.966C155.356 440.986 155.377 441.007 155.397 441.029L175.494 462.7C184.978 472.929 200.69 474.257 211.765 465.767C223.098 457.082 225.939 440.952 217.767 429.248C214.73 424.897 210.586 419.072 205.812 412.414L204.247 413.489C204.441 414.096 204.546 414.743 204.546 415.413C204.546 418.898 201.718 421.727 198.233 421.727C194.749 421.727 191.92 418.898 191.92 415.413C191.92 411.929 194.749 409.1 198.233 409.1C199.933 409.1 201.476 409.773 202.612 410.867L204.012 409.906C201.513 406.428 198.866 402.756 196.135 398.974L194.926 399.745C195.163 400.409 195.293 401.124 195.293 401.869C195.293 405.353 192.464 408.182 188.98 408.182C185.495 408.182 182.667 405.353 182.667 401.869C182.667 398.384 185.495 395.556 188.98 395.556C190.604 395.556 192.086 396.171 193.206 397.18L194.323 396.468C191.805 392.983 189.227 389.424 186.637 385.853L185.748 386.442C185.932 387.034 186.031 387.664 186.031 388.316C186.031 391.801 183.203 394.63 179.718 394.63C176.234 394.63 173.405 391.801 173.405 388.316C173.405 384.832 176.234 382.003 179.718 382.003C181.437 382.003 182.996 382.692 184.135 383.808L184.822 383.351C182.202 379.741 179.58 376.133 177.006 372.594L176.506 372.929C176.683 373.51 176.778 374.126 176.778 374.764C176.778 378.249 173.949 381.077 170.465 381.077C168.71 381.077 167.122 380.36 165.978 379.203ZM174.91 370.283L175.189 370.096C159.562 348.622 146.151 330.319 146.151 330.319C146.149 330.317 146.148 330.313 146.145 330.311C145.827 329.87 145.525 329.424 145.235 328.969L138.305 332.119C138.807 333.267 139.371 334.397 140.002 335.507L164.416 376.576C164.244 376.002 164.152 375.394 164.152 374.764C164.152 371.279 166.98 368.451 170.465 368.451C172.197 368.451 173.769 369.151 174.91 370.283ZM198.233 412.187C196.453 412.187 195.007 413.633 195.007 415.413C195.007 417.194 196.453 418.639 198.233 418.639C200.014 418.639 201.459 417.194 201.459 415.413C201.459 413.633 200.014 412.187 198.233 412.187ZM188.98 398.643C187.199 398.643 185.754 400.088 185.754 401.869C185.754 403.649 187.199 405.095 188.98 405.095C190.76 405.095 192.206 403.649 192.206 401.869C192.206 400.088 190.76 398.643 188.98 398.643ZM179.718 385.09C177.938 385.09 176.492 386.536 176.492 388.316C176.492 390.097 177.938 391.542 179.718 391.542C181.499 391.542 182.944 390.097 182.944 388.316C182.944 386.536 181.499 385.09 179.718 385.09ZM170.465 371.538C168.684 371.538 167.239 372.983 167.239 374.764C167.239 376.544 168.684 377.99 170.465 377.99C172.245 377.99 173.691 376.544 173.691 374.764C173.691 372.983 172.245 371.538 170.465 371.538ZM209.304 406.273L201.382 395.629L198.742 397.311C201.452 401.064 204.077 404.707 206.558 408.159L209.304 406.273ZM199.534 393.146L191.636 382.534L189.211 384.144C191.813 387.731 194.402 391.307 196.931 394.805L199.534 393.146ZM189.79 380.054L181.835 369.366L179.575 370.877C182.151 374.42 184.774 378.03 187.397 381.643L189.79 380.054ZM197.801 446.254C196.021 446.254 194.575 447.699 194.575 449.48C194.575 451.26 196.021 452.706 197.801 452.706C199.582 452.706 201.027 451.26 201.027 449.48C201.027 447.699 199.582 446.254 197.801 446.254ZM179.68 435.819C177.209 435.819 175.203 437.825 175.203 440.296C175.203 442.766 177.209 444.772 179.68 444.772C182.15 444.772 184.156 442.766 184.156 440.296C184.156 437.825 182.15 435.819 179.68 435.819ZM165.371 419.002C161.989 419.002 159.243 421.748 159.243 425.13C159.243 428.512 161.989 431.258 165.371 431.258C168.753 431.258 171.499 428.512 171.499 425.13C171.499 421.748 168.753 419.002 165.371 419.002ZM172.492 361.148C174.207 363.502 175.967 365.92 177.757 368.379L179.989 366.886L174.696 359.774L172.492 361.148ZM143.561 301.41C143.586 301.405 143.608 301.383 143.619 301.356L151.063 283.556C148.777 285.699 146.026 287.289 143.01 288.198L142.759 288.273L138.231 299.1L138.231 299.103C138.212 299.146 138.235 299.194 138.278 299.212L143.471 301.381C143.502 301.39 143.533 301.4 143.561 301.41Z" fill="#6D8CB1"/>
  <path fill-rule="evenodd" clip-rule="evenodd" d="M161.366 139.493L174.185 191.617C175.123 195.409 172.803 199.241 169.011 200.17L83.5447 221.185L83.5432 221.186C79.7515 222.114 75.9211 219.802 74.9935 216.011L62.1742 163.886L62.1735 163.884C61.2458 160.092 63.558 156.262 67.3482 155.334L152.815 134.319L152.816 134.318C156.608 133.39 160.438 135.703 161.366 139.493ZM169.05 183.664L158.369 140.231L158.368 140.229C157.845 138.094 155.687 136.794 153.551 137.317L68.086 158.332L68.0845 158.333C65.949 158.855 64.6493 161.014 65.1726 163.149L75.8532 206.58L169.05 183.664ZM127.055 165.962H127.058C130.411 166.932 131.454 171.177 128.928 173.583L115.607 186.363C113.091 188.782 108.902 187.562 108.066 184.176L103.66 166.255C102.824 162.859 105.98 159.838 109.33 160.815L127.055 165.962ZM126.304 168.557L108.577 163.409L108.575 163.409C107.219 163.013 105.945 164.237 106.282 165.61L110.689 183.53C111.027 184.898 112.719 185.392 113.737 184.415L127.058 171.633L127.061 171.63C128.082 170.659 127.659 168.948 126.307 168.557H126.304ZM124.366 207.969L146.028 202.643L143.679 193.081L122.018 198.407L124.366 207.969ZM149.025 201.905L160.484 199.088L158.133 189.527L146.677 192.344L149.025 201.905ZM95.1708 215.148L111.165 211.215L108.81 201.655L92.8215 205.586L95.1708 215.148ZM163.482 198.351L168.274 197.172L168.275 197.172C170.41 196.649 171.716 194.493 171.189 192.358L171.188 192.356L169.787 186.661L161.132 188.79L163.482 198.351ZM76.5903 209.578L77.991 215.274L77.9918 215.275C78.5143 217.411 80.673 218.71 82.8085 218.187L92.1732 215.885L89.8239 206.324L76.5903 209.578ZM114.163 210.478L121.369 208.706L119.02 199.145L111.808 200.918L114.163 210.478Z" fill="#6D8CB1"/>
  <path fill-rule="evenodd" clip-rule="evenodd" d="M142.998 70.3992L132.542 79.5147C127.912 83.5472 127.355 90.5464 131.3 95.2574L131.3 95.2589C135.354 100.113 142.605 100.682 147.378 96.5277L161.169 84.5112C171.822 75.2298 187.978 76.3388 197.259 86.9916C206.458 97.5457 205.464 113.538 195.025 122.868L175.275 140.526C174.64 141.094 173.663 141.039 173.095 140.404C172.527 139.769 172.582 138.793 173.217 138.225L192.967 120.566C202.147 112.361 203.02 98.3005 194.931 89.0199C186.77 79.6528 172.564 78.6781 163.197 86.8388L149.406 98.8554C143.327 104.147 134.094 103.42 128.932 97.2385C123.908 91.2372 124.618 82.3232 130.514 77.187L140.976 68.0669C139.007 65.4876 139.285 61.8132 141.686 59.5596L170.531 32.4718C170.618 32.2997 170.739 32.1414 170.893 32.0071C171.018 31.8991 171.154 31.815 171.296 31.7532L181.708 21.9756C181.522 20.9144 181.424 19.8223 181.424 18.7079C181.424 13.892 183.247 9.49904 186.241 6.18194C186.361 5.9095 186.561 5.66948 186.831 5.49969C186.874 5.47267 186.917 5.44875 186.961 5.42637C190.343 2.073 194.997 0 200.131 0C210.456 0 218.839 8.38304 218.839 18.7079C218.839 24.7717 215.948 30.1649 211.47 33.5847C211.444 33.6217 211.416 33.6572 211.386 33.6927C211.188 33.9258 210.936 34.0855 210.662 34.1681C207.662 36.2172 204.036 37.4158 200.131 37.4158C198.101 37.4158 196.145 37.0916 194.314 36.4919L183.238 45.4415C183.156 45.5804 183.051 45.7077 182.924 45.8189C182.766 45.9562 182.587 46.0566 182.4 46.1191L151.638 70.9773L151.636 70.9788C149.037 73.0711 145.27 72.8048 142.998 70.3992ZM171.857 35.4624L143.799 61.8101C142.507 63.0233 142.406 65.0346 143.573 66.3682L143.574 66.3698L144.307 67.211L145.149 68.1765C146.31 69.5117 148.323 69.683 149.7 68.5747C149.7 68.5747 167.373 54.2938 179.631 44.388L171.857 35.4624ZM182.635 25.3405L174.109 33.3477L182.033 42.4462C187.325 38.1698 191.12 35.1035 191.12 35.1027C189.245 34.0732 187.516 32.7041 186.026 30.9992L186.025 30.9977C184.526 29.2774 183.399 27.3603 182.635 25.3405ZM187.531 9.47897C185.632 12.0652 184.511 15.2565 184.511 18.7079C184.511 19.898 184.644 21.0572 184.897 22.1708C184.946 22.3877 185 22.603 185.058 22.8168C186.146 26.8123 188.781 30.1719 192.279 32.2117C193.016 32.6392 193.781 33.0035 194.568 33.303C194.602 33.3161 194.636 33.33 194.669 33.3454C196.37 33.9813 198.21 34.3287 200.131 34.3287C202.819 34.3287 205.348 33.6487 207.557 32.4517C199.858 25.7449 193.122 18.0156 187.531 9.47897ZM210.195 30.6511C213.593 27.7848 215.752 23.4968 215.752 18.7079C215.752 10.0864 208.753 3.08711 200.131 3.08711C196.11 3.08711 192.442 4.60983 189.673 7.10884C195.339 15.904 202.25 23.834 210.195 30.6511Z" fill="#6D8CB1"/>
  <path fill-rule="evenodd" clip-rule="evenodd" d="M806.688 208.542L796.712 248.845C796.694 248.915 796.671 248.982 796.644 249.046C794.673 256.154 785.457 260.179 775.799 257.722C766.043 255.241 759.844 247.166 761.686 239.923C763.528 232.682 772.833 228.55 782.588 231.032C788.872 232.63 793.681 236.55 795.815 241.072L804.06 207.551C804.017 207.425 804.426 205.521 806.208 205.521L848.37 203.097C849.221 203.049 849.951 203.701 849.999 204.551C850.006 204.674 849.964 205.142 849.934 205.26L839.68 246.732C839.663 246.801 839.64 246.869 839.613 246.933C837.643 254.041 828.426 258.066 818.768 255.609C809.013 253.128 802.813 245.053 804.655 237.81C806.498 230.569 815.802 226.437 825.557 228.919C831.841 230.517 836.649 234.437 838.784 238.959L846.833 206.276L806.688 208.542Z" fill="#6D8CB1"/>
  <path fill-rule="evenodd" clip-rule="evenodd" d="M718.671 174.686C719.626 182.794 711.865 190.775 700.94 192.298C689.905 193.837 680.173 188.155 679.031 179.963C677.889 171.771 685.695 163.645 696.731 162.106C703.839 161.115 710.406 163.12 714.485 166.862L710.534 138.403C710.417 137.559 711.007 136.779 711.851 136.662C712.694 136.544 713.475 137.135 713.591 137.979L718.656 174.452C718.667 174.53 718.672 174.609 718.671 174.686ZM697.157 165.164C691.557 165.944 686.852 168.625 684.208 172.17C682.556 174.386 681.726 176.939 682.088 179.537C682.45 182.135 683.947 184.363 686.142 186.043C689.655 188.73 694.914 190.021 700.513 189.24C706.113 188.46 710.819 185.78 713.462 182.234C715.114 180.018 715.944 177.465 715.582 174.867C715.22 172.27 713.723 170.041 711.528 168.362C708.015 165.674 702.756 164.383 697.157 165.164Z" fill="#6D8CB1"/>
  <path fill-rule="evenodd" clip-rule="evenodd" d="M35.3415 247.558L50.5743 286.689C50.6021 286.763 50.6233 286.838 50.6386 286.913C53.3159 294.627 47.4523 304.09 37.1108 307.928C26.6643 311.803 15.9388 308.348 13.0611 300.593C10.1843 292.838 16.0604 283.223 26.5061 279.348C33.2351 276.851 40.0801 277.396 44.8686 280.173L31.2006 245.43C30.9048 244.63 31.3132 243.742 32.1121 243.446C32.5635 243.279 33.0439 243.336 33.4298 243.563L46.6205 248.611C47.4096 248.932 47.7907 249.833 47.4702 250.622C47.1495 251.411 46.2487 251.792 45.4591 251.472L35.3415 247.558Z" fill="#6D8CB1"/>
  <path fill-rule="evenodd" clip-rule="evenodd" d="M705.922 253.555H701.314C700.462 253.555 699.771 252.864 699.771 252.012C699.771 251.159 700.462 250.468 701.314 250.468H705.922V245.86C705.922 245.008 706.613 244.317 707.465 244.317C708.317 244.317 709.009 245.008 709.009 245.86V250.468H713.616C714.468 250.468 715.16 251.159 715.16 252.012C715.16 252.864 714.468 253.555 713.616 253.555H709.009V258.163C709.009 259.015 708.317 259.706 707.465 259.706C706.613 259.706 705.922 259.015 705.922 258.163V253.555Z" fill="#8BA7CC"/>
  <path fill-rule="evenodd" clip-rule="evenodd" d="M734.818 216.094H731.476C730.624 216.094 729.933 215.403 729.933 214.551C729.933 213.698 730.624 213.007 731.476 213.007H734.818V209.665C734.818 208.813 735.509 208.122 736.362 208.122C737.214 208.122 737.905 208.813 737.905 209.665V213.007H741.239C742.091 213.007 742.783 213.698 742.783 214.551C742.783 215.403 742.091 216.094 741.239 216.094H737.905V219.428C737.905 220.28 737.214 220.972 736.362 220.972C735.509 220.972 734.818 220.28 734.818 219.428V216.094Z" fill="#8BA7CC"/>
  <path fill-rule="evenodd" clip-rule="evenodd" d="M796.823 309.268H790.796C789.943 309.268 789.252 308.576 789.252 307.724C789.252 306.872 789.943 306.181 790.796 306.181H796.823V300.153C796.823 299.301 797.515 298.609 798.367 298.609C799.219 298.609 799.91 299.301 799.91 300.153V306.181H805.93C806.782 306.181 807.474 306.872 807.474 307.724C807.474 308.576 806.782 309.268 805.93 309.268H799.91V315.287C799.91 316.14 799.219 316.831 798.367 316.831C797.515 316.831 796.823 316.14 796.823 315.287V309.268Z" fill="#8BA7CC"/>
  <path fill-rule="evenodd" clip-rule="evenodd" d="M7.57113 224.502H1.54355C0.691512 224.502 0 223.81 0 222.958C0 222.106 0.691512 221.415 1.54355 221.415H7.57113V215.387C7.57113 214.535 8.26264 213.844 9.11469 213.844C9.96673 213.844 10.6582 214.535 10.6582 215.387V221.415H16.6858C17.5379 221.415 18.2294 222.106 18.2294 222.958C18.2294 223.81 17.5379 224.502 16.6858 224.502H10.6582V230.522C10.6582 231.374 9.96673 232.065 9.11469 232.065C8.26264 232.065 7.57113 231.374 7.57113 230.522V224.502Z" fill="#8BA7CC"/>
  <path fill-rule="evenodd" clip-rule="evenodd" d="M105.408 257.341H101.086C100.234 257.341 99.542 256.65 99.542 255.798C99.542 254.946 100.234 254.254 101.086 254.254H105.408V249.932C105.408 249.08 106.099 248.389 106.951 248.389C107.803 248.389 108.495 249.08 108.495 249.932V254.254H112.817C113.669 254.254 114.36 254.946 114.36 255.798C114.36 256.65 113.669 257.341 112.817 257.341H108.495V261.663C108.495 262.515 107.803 263.207 106.951 263.207C106.099 263.207 105.408 262.515 105.408 261.663V257.341Z" fill="#8BA7CC"/>
  <path fill-rule="evenodd" clip-rule="evenodd" d="M71.555 326.705L71.0781 326.994C70.3495 327.436 69.3995 327.203 68.958 326.475C68.5165 325.746 68.7488 324.796 69.4774 324.355L70.7238 323.598L69.489 318.981C69.269 318.157 69.7583 317.311 70.581 317.091C71.4045 316.871 72.2512 317.36 72.4711 318.183L73.4737 321.931L79.2504 318.43L77.994 313.733C77.774 312.909 78.2633 312.063 79.086 311.843C79.9095 311.623 80.7562 312.112 80.9761 312.935L82.0003 316.762L82.4741 316.475C83.2027 316.033 84.1527 316.266 84.5942 316.994C85.0357 317.723 84.8034 318.673 84.0748 319.114L82.8307 319.868L83.9884 324.197L84.4645 323.907C85.1931 323.466 86.1432 323.698 86.5854 324.426C87.0268 325.154 86.7945 326.104 86.0668 326.547L84.8196 327.303L86.0544 331.92C86.2744 332.744 85.7851 333.591 84.9623 333.811C84.1389 334.031 83.2922 333.541 83.0723 332.719L82.0697 328.972L76.2945 332.477L77.5494 337.169C77.7694 337.992 77.2801 338.839 76.4574 339.059C75.6339 339.279 74.7872 338.789 74.5673 337.967L73.5454 334.146L73.07 334.434C72.3415 334.876 71.3914 334.643 70.9492 333.916C70.5077 333.187 70.74 332.237 71.4678 331.795L72.7142 331.038L71.555 326.705ZM80.0808 321.536L74.3049 325.038L75.4633 329.37L81.2393 325.865L80.0808 321.536Z" fill="#8BA7CC"/>
</svg>
