<svg width="630" height="684" viewBox="0 0 630 684" fill="none" xmlns="http://www.w3.org/2000/svg">
<path d="M500.535 208.028H500.547L500.585 207.816C500.597 207.766 500.61 207.717 500.622 207.667C500.653 207.517 500.672 207.373 500.691 207.224L508.362 165.307L552.696 160.747L546.027 197.167C544.134 192.033 538.592 187.635 531.444 186.237C526.749 185.32 522.061 185.819 518.25 187.647C514.389 189.494 511.886 192.482 511.195 196.044C509.775 203.356 516.55 210.855 526.295 212.751C527.826 213.051 529.365 213.2 530.865 213.2C533.96 213.2 536.924 212.57 539.489 211.341C543.219 209.557 545.678 206.706 546.463 203.3H546.469L546.494 203.175C546.513 203.1 546.531 203.019 546.544 202.944C546.575 202.794 546.594 202.651 546.612 202.501L554.576 159L507.048 163.891L500.093 201.89C498.2 196.755 492.658 192.357 485.51 190.96C475.765 189.057 466.674 193.462 465.254 200.773C463.835 208.085 470.609 215.583 480.354 217.48C481.892 217.779 483.405 217.923 484.881 217.923C492.633 217.929 499.153 213.986 500.535 208.028Z" fill="#5C7FA8"/>
<path d="M309.421 100.626V96.3776H313.67V95.2484H309.421V91H308.292V95.2484H304.043V96.3776H308.292V100.626H309.421Z" fill="#8BA7CC"/>
<path d="M7.47826 540.419V534.492H13.3936V532.92H7.47826V527H5.90916V532.92H0V534.492H5.90916V540.419H7.47826Z" fill="#5C7FA8"/>
<path d="M465.544 138.419V132.492H471.459V130.92H465.544V125H463.975V130.92H458.065V132.492H463.975V138.419H465.544Z" fill="#5C7FA8"/>
<path d="M75.0247 562.793V558.026H79.7757V556.76H75.0247V552H73.7607V556.76H69.0098V558.026H73.7607V562.793H75.0247Z" fill="#8BA7CC"/>
<path d="M516.087 291.793V287.026H520.838V285.76H516.087V281H514.823V285.76H510.072V287.026H514.823V291.793H516.087Z" fill="#8BA7CC"/>
<path d="M576.235 310V320.154H566.08V322.857H576.235V333H578.928V322.857H589.083V320.154H578.928V310H576.235Z" fill="#5C7FA8"/>
<path d="M396.559 414V406.498H404.057V404.502H396.559V397H394.564V404.502H387.055V406.498H394.564V414H396.559Z" fill="#5C7FA8"/>
<path fill-rule="evenodd" clip-rule="evenodd" d="M605.152 468.316C607.593 446.172 616.525 425.997 630 409.729V684H268.038C253.536 597 318.911 543.705 378.76 543.705C386.166 543.705 393.404 544.436 400.404 545.828C403.455 539.214 407.04 532.812 411.116 526.673C403.48 522.996 393.709 521.748 390.285 521.315C385.514 520.704 378.387 524.244 376.293 529.203C374.2 534.162 368.115 536.565 362.785 532.667C357.463 528.761 364.81 518.64 368.005 515.906C371.2 513.172 370.734 507.849 368.92 506.719C367.107 505.59 361.827 502.508 351.429 512.459C341.03 522.41 326.403 521.256 322.869 515.872C319.327 510.489 309.352 487.505 339.988 473.198C370.624 458.891 389.438 475.023 399.734 484.431C405.607 489.789 414.438 503.068 420.955 513.495C421.031 513.403 421.108 513.31 421.184 513.216C421.354 513.009 421.525 512.8 421.701 512.595C416.311 501.2 396.556 455.877 414.116 438.207C420.031 432.255 426.87 430.243 433.328 430.939C431.625 434.913 429.285 441.315 427.387 450.043C424.658 462.567 422.387 482.3 425.497 508.324C425.701 508.095 425.904 507.874 426.107 507.653C424.946 497.728 424.565 488.676 424.726 480.525L425.108 480.806C425.235 480.627 437.777 463.578 455.769 463.849C455.54 464.537 455.269 465.216 454.955 465.896C451.726 472.986 450.057 480.415 449.277 487.258C458.243 480.814 468.023 475.202 478.506 470.591C477.45 466.172 476.119 460.735 474.634 454.664C466.21 420.236 452.795 365.408 455.921 360.066C460.083 352.96 463.744 360.228 470.006 392.187C470.667 396.118 481.006 412.633 467.947 354.191C466.718 347.687 474.1 325.195 484.879 387.127C485.532 391.228 490.71 397.57 489.193 384.282C488.751 380.411 488.448 377.242 488.164 374.266C487.474 367.033 486.891 360.936 484.676 348.646C481.549 331.3 492.71 327.284 498.803 379.918C500.032 388.986 503.049 391.949 504.625 388.018C507.719 380.292 518.329 369.559 527.948 380.453C544.279 398.946 536.049 400.856 532.338 399.065C530.806 398.326 529.119 395.77 527.436 393.22C525.037 389.587 522.646 385.964 520.719 387.611C517.439 390.413 509.108 400.856 509.6 406.902C510.092 412.956 523.109 421.828 528.931 412.769C529.627 411.686 530.221 410.267 530.827 408.819C532.345 405.192 533.936 401.391 537.389 402.283C541.948 403.463 541.533 413.21 537.583 420.36C534.668 425.624 529.804 433.011 519.092 437.579C519.863 441.103 522.295 449.449 524.821 457.804C553.177 454.238 580.847 458.228 605.152 468.316ZM434.083 431.032C448.43 433.036 460.608 448.303 456.007 463.153C438.744 462.771 426.388 478.012 424.744 480.152C425.286 455.01 430.888 438.479 434.083 431.032Z" fill="#5C7FA8"/>
<path d="M141.065 648.097C151.341 628.701 174.929 623.929 181.841 622.932C169.514 615.623 158.773 610.949 150.29 607.981C133.379 602.058 122.044 601.593 119.24 601.58C117.28 606.392 116.447 611.843 116.88 617.387C118.268 635.1 129.719 645.252 141.065 648.097Z" fill="#8BA7CC"/>
<path d="M121.689 596.8C121.061 597.79 120.492 598.83 119.981 599.896C123.808 599.977 134.704 600.748 150.729 606.35C168.599 612.59 196.362 626.28 227.9 656.087C226.362 650.371 224.191 644.877 221.348 639.529C218.383 633.962 207.406 614.626 190.462 599.625C173.589 584.69 156.855 579.269 140.722 583.503C132.419 585.687 125.839 590.283 121.689 596.8Z" fill="#8BA7CC"/>
<path d="M228.5 658.97C212.398 643.511 197.257 632.299 183.893 624.164L183.91 624.375C183.613 624.4 154.523 626.942 142.768 648.481C143.552 648.629 144.33 648.741 145.102 648.815C148.591 649.161 152.021 649.736 155.348 650.487C175.254 654.979 202.529 669.5 211.03 684H230.533C231.033 675 230.045 665.221 228.585 658.875L228.5 658.97Z" fill="#8BA7CC"/>
<path d="M200.037 671.955C191.819 665.8 175.255 654.972 155.349 650.48C152.023 649.729 148.592 649.154 145.103 648.808C144.331 648.734 143.547 648.621 142.77 648.474C154.524 626.935 183.614 624.393 183.911 624.368L183.895 624.158C197.258 632.292 212.4 643.504 228.501 658.963L228.595 658.863C230.048 665.207 230.612 676.977 230.533 684L232.352 684C232.533 661.5 229.454 651.155 222.85 638.729C219.858 633.099 208.753 613.542 191.594 598.357C174.276 583.03 157.017 577.483 140.317 581.867C139.078 582.192 137.9 582.56 136.763 582.973L136.648 583.011C119.419 589.325 114.25 605.203 115.212 617.501C115.485 620.98 116.213 624.398 117.352 627.631L117.489 628.004C118.991 632.145 121.167 635.982 123.928 639.267C129.4 645.785 136.668 649.66 144.954 650.476C166.544 652.607 185.446 663.657 195.896 671.006C202.033 675.327 205.025 678.079 209.03 684L211.03 684C207.828 679.325 205.675 676.694 200.037 671.955ZM190.469 599.627C207.421 614.623 218.399 633.958 221.355 639.531C224.193 644.87 226.37 650.366 227.907 656.088C196.369 626.282 168.599 612.59 150.736 606.352C134.703 600.755 123.815 599.978 119.988 599.898C120.501 598.824 121.068 597.792 121.696 596.802C125.846 590.284 132.426 585.689 140.727 583.511C156.856 579.27 173.594 584.698 190.469 599.627ZM119.24 601.58C122.044 601.593 133.379 602.058 150.29 607.981C158.773 610.949 169.514 615.623 181.841 622.932C174.928 623.935 151.339 628.708 141.065 648.097C129.719 645.252 118.268 635.1 116.881 617.38C116.448 611.836 117.28 606.392 119.24 601.58Z" fill="#5C7FA8"/>
<path d="M492.918 -3.05176e-05C469.688 16.7562 424.845 45.0771 387.075 45.1059C340.002 45.1499 330.047 35.7775 330.047 35.7775L365.656 90.3824L365.59 90.4264L368.769 95.1603L371.882 99.9309L371.948 99.8868L408.297 154C408.297 154 403.557 141.163 421.908 97.7437C437.921 59.8506 487.969 27.2418 510.524 14.053L533.577 -3.05176e-05H492.918Z" fill="#8BA7CC"/>
<path d="M541.976 -3.05176e-05L478.783 42.6178C461.78 53.7223 464.095 65.0983 469.032 72.6872C476.212 83.7256 486.775 84.7971 500.422 75.8871L612.949 -3.05176e-05H593.247L494.415 66.6542C483.061 74.0743 480.387 69.9716 478.241 66.6689C476.322 63.7185 473.428 59.2708 484.782 51.8507L561.667 -3.05176e-05H541.976Z" fill="#8BA7CC"/>
<path d="M492.918 -3.05176e-05C469.688 16.7562 424.845 45.0771 387.075 45.1059C351.242 45.1394 336.917 39.7164 332.119 37.1248C330.614 36.3119 330.047 35.7775 330.047 35.7775L365.656 90.3824L365.59 90.4264L368.769 95.1603L371.883 99.9308L371.949 99.8876L408.297 154C408.297 154 408.027 153.268 407.866 151.564C407.35 146.128 407.938 130.798 421.908 97.7437C437.921 59.8506 487.969 27.2418 510.524 14.053L533.577 -3.05176e-05H531.656L510.019 13.1898L510.011 13.1943C498.707 19.8048 480.508 31.2844 463.12 45.8681C445.747 60.4394 429.086 78.1886 420.987 97.3545C411.788 119.121 408.353 133.275 407.229 142.027C406.793 145.428 406.704 148.018 406.764 149.924L372.222 98.5011L372.168 98.5377L369.607 94.6138L366.979 90.7015L367.034 90.6649L333.197 38.7774C334.926 39.5742 337.342 40.5007 340.64 41.4214C349.125 43.7904 363.478 46.1279 387.076 46.1059C406.569 46.091 427.84 38.637 447.03 29.1642C466.092 19.7548 483.199 8.30457 494.623 -3.05176e-05H492.918Z" fill="#5C7FA8"/>
<path d="M541.976 -3.05176e-05L478.783 42.6178C461.78 53.7223 464.095 65.0983 469.032 72.6872C476.212 83.7256 486.775 84.7971 500.422 75.8871L612.949 -3.05176e-05H611.161L499.875 75.0498L499.869 75.0538C493.141 79.4451 487.324 81.2739 482.403 80.7729C477.533 80.277 473.34 77.4753 469.871 72.1419C467.479 68.4646 465.797 63.9839 466.665 59.1474C467.53 54.3262 470.971 48.9141 479.33 43.455L479.336 43.451L543.765 -3.05176e-05H541.976Z" fill="#5C7FA8"/>
<path d="M559.878 -3.05176e-05L484.235 51.0136L484.229 51.0177C478.495 54.7658 476.085 57.9285 475.551 60.7499C475.02 63.5546 476.418 65.702 477.356 67.1434L477.402 67.2137L477.458 67.301C478.495 68.8961 479.9 71.0606 482.663 71.6599C485.435 72.2611 489.242 71.2297 494.962 67.4913L494.969 67.4873L595.036 -3.05176e-05H593.247L494.415 66.6542C483.061 74.0743 480.387 69.9714 478.241 66.6687C476.322 63.7183 473.428 59.2707 484.782 51.8507L561.667 -3.05176e-05H559.878Z" fill="#5C7FA8"/>
<path fill-rule="evenodd" clip-rule="evenodd" d="M221.927 -3.05176e-05L224.782 7.39308L212.701 16.6189L209.538 8.43242C208.941 6.88682 207.204 6.11776 205.659 6.71466C204.113 7.31157 203.344 9.04841 203.941 10.594L207.733 20.4122L205.05 22.4613C203.733 23.4669 203.48 25.3496 204.486 26.6664C205.492 27.9831 207.375 28.2353 208.692 27.2297L209.985 26.2423L213.702 35.8674L211.02 37.9173C209.704 38.9235 209.452 40.8063 210.459 42.1227C211.465 43.439 213.348 43.6904 214.665 42.6842L215.955 41.6982L219.174 50.0341C219.771 51.5797 221.509 52.3487 223.054 51.7518C224.6 51.1549 225.369 49.4181 224.772 47.8725L220.921 37.9022L233.001 28.67L236.161 36.8516C236.758 38.3972 238.495 39.1663 240.041 38.5694C241.586 37.9725 242.356 36.2356 241.759 34.69L237.967 24.8741L240.652 22.8221C241.968 21.8159 242.22 19.9331 241.214 18.6168C240.207 17.3004 238.324 17.049 237.008 18.0552L235.715 19.0432L232.002 9.42985L234.681 7.38412C235.998 6.37848 236.25 4.4958 235.244 3.17904C234.238 1.86228 232.356 1.61007 231.039 2.6157L229.75 3.59974L228.359 -3.05176e-05H221.927ZM227.034 13.2232L230.748 22.8392L218.669 32.0714L214.952 22.449L227.034 13.2232Z" fill="#5C7FA8"/>
</svg>
