<svg width="630" height="684" viewBox="0 0 630 684" fill="none" xmlns="http://www.w3.org/2000/svg">
<path d="M15.9906 378.786C19.7508 376.767 23.774 375.486 27.8736 374.918L42.8292 327.686C41.9974 327.483 41.1146 327.279 40.3677 327.126C31.0735 325.167 20.5741 323.631 10.499 323.631C6.93412 323.631 3.42864 323.826 0.0419922 324.259V396.261C3.18249 388.787 8.74203 382.663 15.9906 378.786Z" fill="#8BA7CC"/>
<path d="M52.3953 391.129C52.2935 391.129 52.1831 391.12 52.0728 391.103C58.8036 397.94 61.698 408.128 58.7188 417.951C54.3815 432.27 39.2561 440.371 24.9287 436.036C10.6012 431.702 2.49532 416.585 6.8326 402.266C9.77788 392.528 17.7225 385.691 26.9997 383.655C26.4056 383.443 26.0491 383.231 25.8454 382.849C25.5483 382.298 25.735 381.713 26.066 380.652L26.2613 380.025L26.448 379.431C15.5581 381.696 6.19601 389.661 2.74995 401.028C-2.25787 417.569 7.13816 435.103 23.6894 440.108C40.2407 445.113 57.7851 435.722 62.7929 419.181C66.2899 407.628 62.7505 395.607 54.6701 387.693C54.5852 387.981 54.5003 388.261 54.4239 388.516C53.8552 390.374 53.5072 391.129 52.3953 391.129Z" fill="#8BA7CC"/>
<path d="M22.7814 442.899C31.5408 445.545 40.818 444.629 48.8899 440.312C56.5884 436.189 62.3177 429.437 65.1272 421.217C65.6449 417.188 66.2645 413.336 66.9775 409.663C66.8417 400.044 62.6233 390.925 55.5359 384.571C55.3577 385.182 55.1794 385.759 55.0267 386.293C57.59 388.694 59.7798 391.519 61.4859 394.708C65.6025 402.385 66.4767 411.207 63.9559 419.546C59.695 433.619 46.7086 442.721 32.7036 442.721C29.5801 442.721 26.4057 442.271 23.2737 441.321C6.05183 436.113 -3.72616 417.875 1.48537 400.655C5.14363 388.584 15.2102 380.194 26.8385 378.04L27.4072 376.258C23.6556 376.852 19.9889 378.057 16.5513 379.897C8.54725 384.181 2.68216 391.298 0 399.959V420.216C3.23387 430.726 11.484 439.48 22.7814 442.899Z" fill="#8BA7CC"/>
<path d="M66.5109 373.476C63.9136 368.963 63.1667 364.026 63.9306 356.417C63.956 356.205 63.973 356.002 63.9985 355.789C60.6118 367.47 57.8533 376.945 56.0029 383.231C62.5131 388.864 66.7825 396.719 67.9793 405.227C70.0503 396.015 72.7409 388.066 75.839 381.348C72.359 379.821 68.7686 377.387 66.5109 373.476Z" fill="#8BA7CC"/>
<path fill-rule="evenodd" clip-rule="evenodd" d="M70.2879 513.714C65.5008 498.784 63.1836 476.975 63.3958 448.888C63.4552 440.66 63.9051 433 64.652 425.866C61.4011 432.491 56.1896 437.92 49.5521 441.474C44.3151 444.274 38.5943 445.699 32.8141 445.699C29.3596 445.699 25.8795 445.19 22.4759 444.163C13.3854 441.415 5.91615 435.291 1.43457 426.927C0.916812 425.968 0.458468 424.984 0.0340763 424V482.506L31.7022 492.083L31.8125 492.362C31.838 492.43 34.5711 498.979 43.7295 501.753C50.3839 503.763 54.2544 501.999 55.9689 500.76C56.3679 500.472 56.8771 500.421 57.3185 500.616C57.7768 500.82 58.0824 501.235 58.1418 501.727C58.6341 505.901 56.8601 509.871 53.6263 511.856C52.0221 512.848 50.2481 513.12 48.7543 513.12C47.4421 513.12 46.3412 512.909 45.7447 512.794L45.6732 512.78C37.7286 511.194 12.6215 503.958 4.4138 501.481C3.45294 501.194 2.26026 500.826 0.898016 500.405L0.895098 500.404L0.0171007 500.133V532.044L0 532.043L0.000141233 609.043C69.7789 622.895 84.3141 585.188 96.3781 553.891L96.3788 553.89C96.9273 552.467 97.4707 551.057 98.0139 549.666C101.836 542.001 105.227 528.913 105.513 524.979C104.783 525.632 104.095 526.217 103.467 526.718C97.5425 531.502 91.5755 534.293 87.425 534.293C87.2043 534.293 86.9836 534.284 86.7799 534.267C86.5529 534.929 85.3984 537.835 84.3468 540.481C83.9049 541.594 83.4811 542.66 83.1521 543.495C82.8273 543.407 82.4994 543.32 82.1683 543.233C82.4399 542.517 82.9887 541.112 83.5768 539.606L83.5777 539.604C84.4687 537.323 85.4496 534.812 85.6933 534.115C81.2881 533.165 75.126 528.796 70.2879 513.714Z" fill="#8BA7CC"/>
<path d="M90.9215 256.168L69.0229 249.17L63.4209 266.848L86.2192 274.118C88.9523 264.608 91.7278 254.964 94.4864 245.37C95.3012 242.519 96.116 239.686 96.9309 236.861C96.8884 236.887 96.8375 236.895 96.7951 236.878L75.1171 229.956L69.5152 247.643L91.4138 254.641C91.5071 254.667 91.5581 254.768 91.5326 254.862L91.1507 256.049C91.1167 256.143 91.0149 256.202 90.9215 256.168Z" fill="#8BA7CC"/>
<path d="M108.533 196.526C110.324 190.3 112.039 184.336 113.66 178.721L93.4336 172.096L87.8486 189.748L108.533 196.526Z" fill="#8BA7CC"/>
<path d="M53.193 388.185C54.1352 385.063 55.6969 379.779 57.7255 372.823C57.6831 372.899 57.5897 372.942 57.4964 372.916L32.3724 364.934L27.4749 380.398L27.2797 381.026C27.1099 381.56 26.9401 382.111 26.9741 382.256C27.076 382.357 27.7295 382.561 28.434 382.773L50.757 389.5C51.3342 389.678 52.3103 389.967 52.531 389.839C52.7262 389.729 52.9384 389.016 53.193 388.185Z" fill="#8BA7CC"/>
<path d="M102.915 108.789C101.54 114.43 100.861 117.84 100.963 118.671C104.494 122.141 105.139 125.322 105.19 127.027L128.523 134.483C130.645 131.472 133.811 128.749 138.123 129.529L154.369 83.366L153.359 83.0182L154.403 80.0238L155.421 80.3801L156.771 76.5459C157.204 75.3074 157.127 73.9756 156.55 72.7965C155.973 71.6429 154.988 70.7861 153.766 70.3874L152.934 70.1244L153.834 66.7568C154.674 63.6436 152.968 60.3608 149.955 59.2835L132.309 52.9978C128.973 51.8102 125.391 52.0477 122.225 53.6764C119.017 55.3305 116.7 58.1638 115.706 61.6502C114.968 64.2289 114.264 66.7313 113.576 69.1659L115.223 69.6579L114.314 72.6947L112.719 72.2197C111.25 77.462 109.901 82.3311 108.687 86.7846L109.926 87.1578L109.018 90.1946L107.855 89.8468C106.183 96.0223 104.791 101.307 103.705 105.616L103.739 105.625L103.713 105.71L105.521 106.252L104.613 109.289L102.915 108.789ZM140.873 76.495C142.112 74.2301 144.964 73.3903 147.23 74.6373C149.497 75.8757 150.337 78.726 149.089 80.9909C147.85 83.2557 144.998 84.0955 142.732 82.8486C140.466 81.6101 139.634 78.7599 140.873 76.495ZM134.549 94.19C135.789 91.9251 138.641 91.0853 140.907 92.3323C143.173 93.5708 144.013 96.421 142.766 98.6859C141.518 100.951 138.675 101.791 136.408 100.544C134.142 99.3051 133.302 96.4549 134.549 94.19ZM128.056 112.19C129.296 109.926 132.147 109.086 134.414 110.333C136.68 111.571 137.52 114.421 136.273 116.686C135.025 118.951 132.181 119.791 129.915 118.544C127.649 117.305 126.809 114.455 128.056 112.19ZM117.183 70.9897C118.193 68.606 120.943 67.4948 123.32 68.4958C125.705 69.5052 126.817 72.2536 125.816 74.6288C124.805 77.0124 122.055 78.1237 119.679 77.1227C117.294 76.1133 116.173 73.3649 117.183 70.9897ZM112.668 89.2276C113.678 86.8439 116.428 85.7327 118.805 86.7337C121.181 87.7346 122.302 90.4915 121.3 92.8667C120.29 95.2504 117.54 96.3616 115.163 95.3606C112.778 94.3597 111.666 91.6113 112.668 89.2276ZM108.025 107.796C109.035 105.413 111.785 104.301 114.162 105.302C116.538 106.303 117.659 109.06 116.657 111.435C115.647 113.819 112.897 114.93 110.52 113.929C108.144 112.928 107.023 110.171 108.025 107.796Z" fill="#8BA7CC"/>
<path d="M97.2785 235.351C97.3125 235.36 97.3295 235.385 97.3464 235.411C99.1034 229.312 100.826 223.297 102.524 217.402L81.2874 210.446L75.6006 228.421L97.2785 235.351Z" fill="#8BA7CC"/>
<path d="M63.7523 352.074C66.9438 341.038 70.636 328.246 74.6168 314.419L50.8084 306.836C50.7914 306.836 50.7914 306.819 50.7829 306.81L38.9424 344.194L63.7523 352.074ZM45.4271 324.59L69.2609 332.182C69.3628 332.216 69.4137 332.318 69.3883 332.411L69.0063 333.599C68.9724 333.692 68.8705 333.743 68.7771 333.709L44.9433 326.117C44.8414 326.083 44.7905 325.981 44.816 325.888L45.1979 324.7C45.2234 324.615 45.3337 324.564 45.4271 324.59Z" fill="#8BA7CC"/>
<path d="M38.4584 345.72L32.8564 363.415L57.9889 371.398C58.0483 371.415 58.0908 371.466 58.1078 371.517C59.6101 366.351 61.3586 360.328 63.3023 353.618L38.4584 345.72Z" fill="#8BA7CC"/>
<path d="M99.5366 152.797L93.9092 170.577L114.102 177.185C115.969 170.713 117.692 164.741 119.245 159.38L99.5366 152.797Z" fill="#8BA7CC"/>
<path d="M106.947 129.419L100.029 151.279L119.696 157.845C122.565 147.92 124.788 140.285 126.095 135.874L126.189 135.56L106.947 129.419Z" fill="#8BA7CC"/>
<path d="M51.3003 305.3L75.0662 312.875C76.7383 307.082 78.4528 301.118 80.2013 295.036L56.8598 287.597L51.2578 305.3C51.2663 305.309 51.2833 305.3 51.3003 305.3Z" fill="#8BA7CC"/>
<path d="M102.966 215.867C104.723 209.759 106.437 203.804 108.084 198.061L87.3565 191.275L81.7715 208.928L102.966 215.867Z" fill="#8BA7CC"/>
<path d="M80.6429 293.501C82.3319 287.648 84.0465 281.684 85.778 275.661L62.9457 268.383L57.3438 286.07L80.6429 293.501Z" fill="#8BA7CC"/>
<path d="M45.6893 512.737C46.2665 512.856 47.4038 513.077 48.7704 513.077C50.2642 513.077 52.0297 512.805 53.6424 511.813C56.8678 509.828 58.6417 505.849 58.1579 501.684C58.0985 501.192 57.7929 500.777 57.3346 500.573C56.8847 500.369 56.3755 500.429 55.985 500.717C54.2705 501.947 50.4 503.72 43.7456 501.71C34.5787 498.936 31.8541 492.387 31.8286 492.319L31.7183 492.039L0.0332031 482.454V486.543L27.2028 494.754L24.7498 502.855L0.0332031 495.382V500.089C1.76472 500.632 3.26707 501.09 4.4299 501.438C12.6376 503.924 37.7447 511.151 45.6893 512.737Z" fill="#5C7FA8"/>
<path d="M27.2028 494.762L0.0332031 486.551V489.24C0.0841302 489.249 0.143545 489.257 0.194472 489.274C1.39126 489.639 2.07028 490.903 1.70531 492.099C1.45916 492.905 0.805596 493.473 0.0332031 493.643V495.399L24.7498 502.872L27.2028 494.762ZM6.5264 493.541C6.22933 494.516 5.32961 495.144 4.362 495.144C4.1498 495.144 3.92912 495.11 3.70844 495.051C3.13126 494.873 2.65595 494.482 2.36736 493.956C2.07877 493.422 2.01936 492.811 2.1976 492.234C2.37585 491.658 2.76629 491.183 3.29253 490.894C3.82727 490.606 4.43839 490.546 5.01556 490.725C5.59274 490.903 6.06806 491.293 6.35664 491.819C6.64523 492.353 6.70464 492.964 6.5264 493.541ZM11.3475 495C11.0504 495.975 10.1507 496.603 9.18309 496.603C8.9709 496.603 8.75021 496.569 8.52953 496.51C7.95236 496.332 7.47704 495.941 7.18845 495.416C6.89986 494.881 6.84045 494.27 7.01869 493.694C7.38367 492.497 8.63987 491.819 9.84514 492.184C11.0334 492.54 11.7125 493.804 11.3475 495ZM16.1686 496.459C15.9903 497.036 15.5999 497.511 15.0737 497.799C14.7426 497.977 14.3776 498.071 14.0127 498.071C13.792 498.071 13.5713 498.037 13.3506 497.969C12.7734 497.791 12.2981 497.4 12.0095 496.875C11.721 496.34 11.6615 495.729 11.8398 495.153C12.018 494.576 12.4085 494.101 12.9347 493.812C13.4695 493.524 14.0806 493.464 14.6577 493.643C15.2349 493.821 15.7102 494.211 15.9988 494.737C16.2789 495.263 16.3468 495.874 16.1686 496.459ZM20.9897 497.909C20.6926 498.885 19.7929 499.513 18.8253 499.513C18.6131 499.513 18.3924 499.479 18.1717 499.419C16.9749 499.055 16.2959 497.791 16.6609 496.595C16.8391 496.018 17.2296 495.543 17.7558 495.254C18.2905 494.966 18.9017 494.907 19.4788 495.085C20.6671 495.458 21.3462 496.722 20.9897 497.909Z" fill="#8BA7CC"/>
<path d="M44.9434 326.117L68.7772 333.709C68.8791 333.743 68.9809 333.692 69.0064 333.599L69.3883 332.411C69.4223 332.318 69.3629 332.216 69.261 332.182L45.4272 324.59C45.3253 324.556 45.2235 324.607 45.198 324.7L44.8161 325.888C44.7906 325.99 44.8415 326.091 44.9434 326.117Z" fill="#5C7FA8"/>
<path d="M119.67 77.1227C122.055 78.1322 124.805 77.0125 125.807 74.6288C126.817 72.2452 125.696 69.4967 123.311 68.4958C120.926 67.4863 118.176 68.6061 117.174 70.9897C116.173 73.3734 117.293 76.1133 119.67 77.1227Z" fill="#5C7FA8"/>
<path d="M115.163 95.3691C117.548 96.3786 120.298 95.2588 121.3 92.8752C122.31 90.4915 121.19 87.7431 118.805 86.7422C116.419 85.7412 113.669 86.8524 112.668 89.2361C111.666 91.6113 112.778 94.3597 115.163 95.3691Z" fill="#5C7FA8"/>
<path d="M110.52 113.929C112.905 114.939 115.655 113.819 116.656 111.435C117.666 109.052 116.546 106.303 114.161 105.302C111.776 104.301 109.026 105.413 108.024 107.796C107.023 110.18 108.135 112.92 110.52 113.929Z" fill="#5C7FA8"/>
<path d="M142.74 82.8486C145.014 84.087 147.858 83.2557 149.097 80.9909C150.336 78.726 149.504 75.8757 147.238 74.6373C144.972 73.3988 142.12 74.2301 140.881 76.495C139.633 78.7599 140.465 81.6101 142.74 82.8486Z" fill="#5C7FA8"/>
<path d="M136.408 100.544C138.683 101.782 141.526 100.951 142.765 98.6859C144.004 96.421 143.173 93.5708 140.906 92.3323C138.64 91.0938 135.788 91.9251 134.549 94.19C133.301 96.4549 134.142 99.3051 136.408 100.544Z" fill="#5C7FA8"/>
<path d="M129.915 118.544C132.181 119.782 135.033 118.951 136.272 116.686C137.511 114.421 136.679 111.571 134.413 110.333C132.147 109.094 129.295 109.926 128.056 112.19C126.808 114.455 127.648 117.305 129.915 118.544Z" fill="#5C7FA8"/>
<path d="M0.491256 491.717C0.626975 491.267 0.423396 490.818 0.0332031 490.589V492.285C0.245265 492.158 0.414914 491.963 0.491256 491.717Z" fill="#8BA7CC"/>
<path d="M1.70531 492.082C2.07028 490.886 1.39126 489.622 0.194472 489.257C0.143545 489.24 0.0841302 489.24 0.0332031 489.223V490.58C0.415156 490.809 0.627352 491.259 0.491546 491.709C0.415156 491.963 0.245399 492.158 0.0332031 492.277V493.626C0.805596 493.456 1.46765 492.888 1.70531 492.082Z" fill="#5C7FA8"/>
<path d="M5.31339 493.176C5.38978 492.922 5.36431 492.65 5.237 492.421C5.10968 492.184 4.90597 492.014 4.65133 491.938C4.55797 491.912 4.45611 491.895 4.36275 491.895C4.20148 491.895 4.04021 491.938 3.89592 492.014C3.65826 492.141 3.4885 492.345 3.41211 492.599C3.33572 492.854 3.36118 493.125 3.4885 493.354C3.61582 493.583 3.81953 493.761 4.07416 493.838C4.60041 493.999 5.15212 493.693 5.31339 493.176Z" fill="#8BA7CC"/>
<path d="M5.01622 490.725C4.43905 490.546 3.82793 490.606 3.29319 490.894C2.75846 491.183 2.36802 491.658 2.19826 492.234C2.0285 492.811 2.08792 493.422 2.36802 493.956C2.6566 494.491 3.13192 494.881 3.7091 495.051C3.92978 495.119 4.15046 495.144 4.36266 495.144C5.33876 495.144 6.23847 494.516 6.52706 493.541C6.7053 492.964 6.6374 492.353 6.3573 491.819C6.06871 491.284 5.5934 490.894 5.01622 490.725ZM3.48841 493.354C3.36109 493.117 3.33563 492.854 3.41202 492.599C3.48841 492.345 3.65817 492.141 3.89583 492.014C4.04012 491.938 4.20139 491.895 4.36266 491.895C4.45603 491.895 4.55788 491.912 4.65125 491.938C4.90588 492.014 5.10959 492.184 5.23691 492.421C5.36422 492.659 5.38969 492.922 5.3133 493.176C5.15203 493.702 4.60032 493.999 4.07407 493.838C3.81944 493.761 3.61573 493.592 3.48841 493.354Z" fill="#5C7FA8"/>
<path d="M10.1347 494.627C10.2959 494.101 9.99887 493.549 9.47262 493.388C9.37926 493.363 9.2774 493.346 9.18404 493.346C8.75965 493.346 8.36072 493.626 8.2334 494.05C8.15701 494.304 8.18247 494.576 8.30979 494.805C8.43711 495.034 8.64082 495.212 8.89545 495.288C9.4217 495.458 9.97341 495.153 10.1347 494.627Z" fill="#8BA7CC"/>
<path d="M9.83704 492.175C8.64025 491.819 7.37557 492.489 7.01059 493.685C6.83235 494.262 6.90025 494.873 7.18035 495.407C7.46893 495.941 7.94425 496.332 8.52142 496.501C8.74211 496.569 8.96279 496.595 9.17499 496.595C10.1511 496.595 11.0508 495.967 11.3394 494.991C11.7129 493.804 11.0338 492.54 9.83704 492.175ZM8.30923 494.813C8.18191 494.576 8.15645 494.313 8.23284 494.058C8.36016 493.634 8.75908 493.354 9.18348 493.354C9.27684 493.354 9.37021 493.371 9.47206 493.397C9.99831 493.558 10.2954 494.109 10.1341 494.635C9.97285 495.161 9.42114 495.458 8.89489 495.297C8.64025 495.22 8.42806 495.042 8.30923 494.813Z" fill="#5C7FA8"/>
<path d="M14.4712 496.671C14.7088 496.544 14.8786 496.34 14.955 496.086C15.0314 495.831 15.0059 495.56 14.8786 495.331C14.7513 495.102 14.5476 494.924 14.2929 494.847C14.1996 494.822 14.0977 494.805 14.0043 494.805C13.8431 494.805 13.6818 494.847 13.5375 494.923C13.2999 495.051 13.1301 495.254 13.0537 495.509C12.9773 495.763 13.0028 496.035 13.1301 496.264C13.2574 496.493 13.4611 496.671 13.7158 496.747C13.9704 496.824 14.2335 496.798 14.4712 496.671Z" fill="#8BA7CC"/>
<path d="M14.6586 493.634C14.0815 493.464 13.4703 493.524 12.9356 493.804C12.4009 494.092 12.0104 494.567 11.8407 495.144C11.6624 495.721 11.7303 496.332 12.0104 496.866C12.299 497.4 12.7743 497.791 13.3515 497.96C13.5722 498.028 13.7929 498.062 14.0136 498.062C14.3785 498.062 14.7435 497.969 15.0745 497.791C15.6093 497.502 15.9997 497.027 16.1695 496.45C16.3392 495.874 16.2798 495.263 15.9997 494.728C15.7111 494.202 15.2358 493.812 14.6586 493.634ZM13.1308 496.272C13.0035 496.035 12.978 495.772 13.0544 495.517C13.1308 495.263 13.3006 495.059 13.5382 494.932C13.6825 494.856 13.8438 494.813 14.0051 494.813C14.0984 494.813 14.2003 494.83 14.2937 494.856C14.5483 494.932 14.752 495.102 14.8793 495.339C15.0066 495.577 15.0321 495.84 14.9557 496.094C14.8793 496.349 14.7096 496.552 14.4719 496.679C14.2342 496.807 13.9711 496.832 13.7165 496.756C13.4618 496.671 13.2496 496.501 13.1308 496.272Z" fill="#5C7FA8"/>
<path d="M19.7762 497.545C19.9375 497.019 19.6404 496.467 19.1142 496.306C19.0208 496.281 18.919 496.264 18.8256 496.264C18.6643 496.264 18.5031 496.306 18.3588 496.383C18.1296 496.51 17.9513 496.713 17.8749 496.968C17.7137 497.494 18.0108 498.045 18.537 498.206C19.0548 498.368 19.615 498.071 19.7762 497.545Z" fill="#8BA7CC"/>
<path d="M19.4792 495.093C18.902 494.915 18.2909 494.974 17.7561 495.263C17.2214 495.551 16.831 496.026 16.6612 496.603C16.2962 497.799 16.9753 499.063 18.172 499.428C18.3927 499.496 18.6134 499.521 18.8256 499.521C19.7932 499.521 20.7014 498.893 20.99 497.918C21.3465 496.722 20.6675 495.458 19.4792 495.093ZM17.875 496.968C17.9514 496.713 18.1211 496.51 18.3588 496.383C18.5031 496.306 18.6643 496.264 18.8256 496.264C18.919 496.264 19.0208 496.281 19.1142 496.306C19.6404 496.467 19.9375 497.019 19.7762 497.545C19.615 498.071 19.0633 498.367 18.537 498.206C18.0108 498.045 17.7137 497.494 17.875 496.968Z" fill="#5C7FA8"/>
<path d="M86.0587 533.062C103.255 482.819 106.048 422.286 106.081 421.573L107.142 421.616C107.134 421.828 106.192 442.967 101.965 470.315C99.1979 488.205 94.572 511.414 87.1451 533.181C89.3265 533.249 92.7132 532.375 96.9146 529.949C96.1847 527.896 94.5126 519.702 100.148 494.321C106.413 466.082 133.964 439.429 138.149 435.51C138.157 435.332 138.166 435.163 138.174 434.984C139.43 393.639 128.634 369.039 118.109 359.793C113.644 355.874 108.755 354.203 103.968 354.967C85.2608 357.97 64.924 388.626 64.4741 448.845C63.9054 522.492 80.635 531.951 86.0587 533.062Z" fill="#8BA7CC"/>
<path d="M125.96 536.523C126.885 536.523 127.852 536.48 128.854 536.404C136.552 535.768 149.055 532.307 164.893 519.447C181.071 506.307 197.079 486.347 212.476 460.119C239.934 413.336 236.335 393.902 228.476 385.844C223.561 380.797 216.703 379.821 211.772 379.897C205.974 379.982 199.668 381.602 194.906 384.232C184.526 389.958 160.14 410.724 139.184 435.85C139.192 435.57 139.209 435.307 139.218 435.027C140.278 400.137 132.453 371.007 118.796 359.013C114.085 354.873 108.89 353.117 103.789 353.94C94.1301 355.493 84.0466 364.17 76.3736 380.211C73.0973 378.778 69.7191 376.504 67.6141 372.857C65.1611 368.598 64.4566 363.873 65.1951 356.561C65.6959 351.599 66.5362 347.977 67.2152 345.067C67.368 344.414 67.5123 343.795 67.6396 343.201C75.5163 315.946 85.7017 280.522 95.7004 245.743C105.19 212.736 114.323 180.968 120.553 159.431L120.858 158.447C120.867 158.43 120.858 158.421 120.858 158.404C123.617 148.853 125.79 141.405 127.122 136.892L128.294 137.282L128.548 136.833C131.273 132.091 134.498 130.081 138.123 130.844C138.428 130.912 138.776 130.98 139.039 130.666L139.285 130.352L139.234 130.216L143.012 119.494L148.325 121.343L146.772 125.797C146.712 125.966 146.806 126.145 146.967 126.204L151.754 127.875C152.671 128.197 153.672 127.714 153.986 126.798L157.314 117.255C157.636 116.338 157.152 115.337 156.236 115.024L151.448 113.353C151.279 113.293 151.1 113.386 151.041 113.548L149.369 118.34L144.064 116.491L149.08 102.24L154.402 104.098L153.358 107.084L158.757 108.967C159.503 109.23 160.318 108.831 160.581 108.085L162.882 101.485C163.145 100.739 162.746 99.9243 161.999 99.6614L156.601 97.7782L155.438 101.103L150.124 99.2542L155.565 83.7986L159.622 85.2152L158.205 89.27C158.145 89.4397 158.239 89.6178 158.4 89.6772L163.187 91.3483C164.104 91.6706 165.105 91.1871 165.419 90.271L168.237 82.1869C168.56 81.2708 168.076 80.2698 167.159 79.9559L162.372 78.2848C162.203 78.2255 162.024 78.3188 161.965 78.48L160.666 82.2124L156.618 80.8042L157.967 76.9785C158.519 75.4092 158.417 73.7296 157.687 72.2451C157.008 70.8794 155.879 69.8445 154.47 69.3016L155.064 67.0961C156.074 63.3467 154.02 59.3938 150.388 58.1044L132.741 51.8187C129.066 50.5123 125.128 50.7753 121.648 52.5652C118.168 54.355 115.562 57.5445 114.484 61.3194C113.746 63.9066 113.05 66.3751 112.379 68.7333L108.865 67.6814L110.189 63.2449C110.24 63.0753 110.147 62.8971 109.968 62.8463L108.373 62.3712C108.33 62.3034 108.271 62.2525 108.186 62.227L103.331 60.7765C102.406 60.4965 101.421 61.0225 101.15 61.9556L98.2467 71.6429C97.9666 72.5675 98.4929 73.5515 99.4265 73.8229L100.708 74.2046C100.861 74.3064 101.022 74.3913 101.209 74.4422L106.064 75.8927C106.234 75.9436 106.412 75.8503 106.463 75.6806L107.923 70.8116L111.488 71.8804C109.96 77.3093 108.627 82.1106 107.465 86.3519L103.552 85.1813L104.434 82.2378L102.626 81.6949L102.652 81.6101L97.1773 79.9729C96.4218 79.7439 95.624 80.1765 95.3948 80.9315L93.3917 87.6244C93.1625 88.3793 93.5954 89.1767 94.3508 89.4057L95.7004 89.8129C95.8277 89.9062 95.972 89.9826 96.1333 90.0335L101.608 91.6706L102.618 88.303L106.607 89.499C104.808 96.1325 103.458 101.273 102.457 105.268L99.1719 104.284L100.377 100.255C100.428 100.086 100.335 99.9074 100.156 99.8565L98.5608 99.3814C98.5183 99.3136 98.4589 99.2627 98.374 99.2372L93.519 97.7867C92.5938 97.5068 91.6092 98.0327 91.3376 98.9658L88.8846 107.169C88.6045 108.093 89.1308 109.077 90.0645 109.349L91.3461 109.73C91.4989 109.832 91.6602 109.917 91.8469 109.968L96.7019 111.418C96.8717 111.469 97.0499 111.376 97.1009 111.206L98.2382 107.415L101.676 108.441C99.1889 118.748 99.6557 119.206 99.9697 119.503C104.655 124.049 103.883 127.9 103.849 128.062L103.721 128.605L105.64 129.309L43.2201 326.473C42.3458 326.261 41.4291 326.049 40.6313 325.879C23.3161 322.232 10.109 321.697 0.0339513 322.995V324.259C3.4206 323.826 6.92608 323.631 10.491 323.631C20.566 323.631 31.0655 325.167 40.3597 327.126C41.1066 327.287 41.9893 327.491 42.8211 327.686L27.8656 374.918C23.7575 375.486 19.7427 376.776 15.9826 378.786C8.73398 382.663 3.17445 388.787 0.0254633 396.261V399.968C2.70762 391.307 8.58121 384.19 16.5767 379.906C20.0228 378.065 23.6896 376.852 27.4327 376.267L26.864 378.048C15.2357 380.203 5.16909 388.592 1.51083 400.663C-3.7007 417.875 6.07729 436.121 23.2991 441.329C26.4396 442.279 29.6056 442.729 32.7291 442.729C46.7425 442.729 59.7204 433.627 63.9813 419.554C66.5022 411.216 65.628 402.394 61.5114 394.717C59.8053 391.527 57.6154 388.711 55.0521 386.302C55.2134 385.767 55.3831 385.191 55.5614 384.58C62.6487 390.933 66.8757 400.044 67.003 409.672C66.29 413.336 65.6704 417.188 65.1526 421.225C62.3432 429.445 56.6224 436.197 48.9154 440.32C40.8435 444.638 31.5748 445.562 22.8068 442.907C11.5095 439.489 3.25933 430.734 0 420.241V423.965C0.424392 424.958 0.882735 425.933 1.40049 426.892C5.88207 435.256 13.3599 441.38 22.4418 444.129C25.8455 445.155 29.3255 445.664 32.78 445.664C38.5518 445.664 44.281 444.239 49.518 441.44C56.1555 437.885 61.3671 432.456 64.6179 425.831C63.8625 432.974 63.4211 440.634 63.3617 448.854C63.1495 476.94 65.4667 498.749 70.2538 513.679C75.0919 528.761 81.2456 533.13 85.6762 534.08C85.2434 535.318 79.872 548.77 79.4222 550L80.0508 551.5C80.4751 550.321 86.3298 535.42 86.7372 534.241C86.9494 534.258 87.1616 534.266 87.3823 534.266C91.5328 534.266 97.4998 531.476 103.424 526.691C104.052 526.182 104.74 525.597 105.461 524.952C105.173 529.041 101.064 542.333 98.0622 549.5H99.0628C99.5631 549 106.262 530.542 106.811 523.714C106.819 523.705 106.828 523.697 106.836 523.688C108.127 526.505 109.773 529.151 111.819 531.594C112.022 531.84 112.26 532.086 112.515 532.324C110.41 534.148 103.746 539.193 101.564 541L100.063 545C101.956 543.422 111.505 534.606 113.338 533.019C115.884 534.937 120.086 536.523 125.96 536.523ZM64.4566 448.854C64.9065 388.626 85.2518 357.969 103.951 354.975C108.738 354.212 113.627 355.874 118.091 359.802C128.616 369.039 139.413 393.648 138.157 434.993C138.148 435.171 138.14 435.341 138.131 435.519C133.947 439.438 106.404 466.091 100.131 494.33C94.5036 519.702 96.1672 527.896 96.8972 529.957C92.7042 532.383 89.309 533.257 87.1277 533.189C94.563 511.422 99.1804 488.214 101.947 470.323C106.174 442.984 107.117 421.836 107.125 421.624L106.064 421.582C106.03 422.294 103.238 482.827 86.0412 533.07C80.6345 531.951 63.9049 522.492 64.4566 448.854ZM107.252 521.865C104.494 515.019 103.934 507.113 105.606 498.232C109.171 479.239 122.454 457.939 137.995 438.895L139.116 437.538C160.149 412.089 184.95 390.925 195.424 385.148C200.933 382.111 206.433 380.932 211.364 380.932C218.706 380.932 224.783 383.553 227.729 386.573C235.325 394.369 238.695 413.37 211.568 459.576C173.194 524.952 140.881 534.334 128.777 535.344C121.792 535.921 116.928 534.334 114.195 532.307C147.51 503.245 170.555 473.199 184.874 451.322C204.048 422.04 212.153 400.672 212.238 400.46L211.245 400.086C211.169 400.298 203.097 421.556 183.991 450.745C169.689 472.588 146.67 502.6 113.381 531.62C113.126 531.382 112.888 531.145 112.693 530.907C110.63 528.439 108.975 525.767 107.711 522.9M103.704 105.71L103.73 105.625L103.696 105.616C104.782 101.307 106.174 96.0138 107.846 89.8468L109.009 90.1946L109.917 87.1578L108.678 86.7846C109.892 82.3311 111.242 77.462 112.71 72.2197L114.306 72.6947L115.214 69.6579L113.567 69.1659C114.255 66.7313 114.959 64.2289 115.698 61.6502C116.691 58.1638 119.008 55.3305 122.216 53.6764C125.382 52.0477 128.964 51.8017 132.3 52.9978L149.946 59.2835C152.959 60.3523 154.657 63.6351 153.825 66.7568L152.925 70.1244L153.757 70.3874C154.979 70.7861 155.964 71.6429 156.541 72.7965C157.127 73.9671 157.203 75.2989 156.762 76.5459L155.412 80.3801L154.394 80.0238L153.35 83.0182L154.36 83.366L138.114 129.529C133.802 128.749 130.628 131.472 128.514 134.483L105.181 127.027C105.13 125.322 104.485 122.141 100.954 118.671C100.852 117.84 101.532 114.43 102.907 108.789L104.596 109.298L105.504 106.261L103.704 105.71ZM50.7573 389.5L28.4343 382.773C27.7383 382.561 27.0762 382.366 26.9743 382.256C26.9404 382.111 27.1102 381.56 27.2799 381.026L27.4751 380.398L32.3726 364.934L57.4966 372.916C57.59 372.95 57.6833 372.899 57.7258 372.823C55.6972 379.779 54.1439 385.063 53.1933 388.185C52.9471 389.008 52.7264 389.729 52.5312 389.839C52.3105 389.966 51.3429 389.678 50.7573 389.5ZM91.414 254.641L69.5154 247.643L75.1174 229.956L96.7953 236.878C96.8462 236.895 96.8887 236.887 96.9311 236.861C96.1163 239.686 95.3014 242.519 94.4866 245.369C91.7281 254.963 88.9525 264.608 86.2195 274.118L63.4296 266.856L69.0316 249.178L90.9302 256.177C91.0236 256.21 91.1254 256.151 91.1509 256.058L91.5328 254.87C91.5583 254.768 91.5074 254.675 91.414 254.641ZM113.661 178.721C112.039 184.336 110.325 190.291 108.534 196.526L87.8406 189.757L93.4256 172.104L113.661 178.721ZM93.9094 170.577L99.5369 152.797L119.237 159.38C117.684 164.741 115.961 170.713 114.094 177.185L93.9094 170.577ZM108.084 198.061C106.429 203.804 104.714 209.759 102.966 215.867L81.7718 208.928L87.3568 191.275L108.084 198.061ZM81.288 210.455L102.525 217.41C100.827 223.297 99.104 229.32 97.347 235.419C97.33 235.394 97.3131 235.368 97.2791 235.36L75.5927 228.429L81.288 210.455ZM62.9458 268.383L85.7781 275.661C84.0466 281.684 82.332 287.648 80.6429 293.501L57.3438 286.078L62.9458 268.383ZM56.86 287.605L80.2016 295.044C78.4531 301.127 76.7301 307.09 75.0664 312.884L51.3005 305.309C51.2835 305.3 51.275 305.309 51.2581 305.309L56.86 287.605ZM50.7742 306.81C50.7827 306.819 50.7912 306.827 50.7997 306.835L74.6081 314.419C70.6273 328.246 66.9351 341.038 63.7437 352.074L38.9337 344.193L50.7742 306.81ZM58.1077 371.508C58.0823 371.457 58.0483 371.415 57.9889 371.389L32.8564 363.407L38.4584 345.712L63.3023 353.601C61.3586 360.319 59.6101 366.342 58.1077 371.508ZM119.687 157.845L100.021 151.279L106.938 129.419L126.172 135.56L126.078 135.874C124.78 140.285 122.556 147.92 119.687 157.845ZM62.793 419.181C57.7852 435.722 40.2408 445.113 23.6896 440.108C7.13827 435.103 -2.25777 417.569 2.75006 401.028C6.19612 389.661 15.5582 381.696 26.4481 379.431L26.2614 380.025L26.0661 380.652C25.7351 381.713 25.5484 382.298 25.8455 382.849C26.0492 383.231 26.4057 383.443 26.9998 383.655C17.7141 385.691 9.77799 392.528 6.83271 402.266C2.49542 416.585 10.6013 431.71 24.9288 436.036C39.2562 440.371 54.3901 432.27 58.7189 417.951C61.6896 408.128 58.7953 397.94 52.0729 391.103C52.1832 391.112 52.2936 391.129 52.3954 391.129C53.5158 391.129 53.8638 390.374 54.424 388.524C54.5004 388.27 54.5853 387.99 54.6702 387.702C62.7506 395.616 66.29 407.627 62.793 419.181ZM56.0028 383.223C57.8616 376.937 60.6201 367.47 63.9983 355.781C63.9728 355.993 63.9474 356.197 63.9304 356.409C63.1665 364.018 63.9134 368.955 66.5107 373.467C68.7685 377.378 72.3588 379.813 75.8388 381.339C72.7408 388.058 70.0501 396.006 67.9791 405.218C66.7823 396.71 62.5129 388.855 56.0028 383.223Z" fill="#5C7FA8"/>
<path d="M98.0622 549.5C97.5683 550.767 96.8786 552.55 96.38 553.844L96.3785 553.847C84.3381 585.082 69.4273 622.624 0 609L6.81564e-05 610.019C36.6084 617.247 58.3069 610.37 72.41 597.424C85.1777 585.703 91.5718 569.108 97.3053 554.226L97.3057 554.225C97.8551 552.799 98.5204 550.889 99.0628 549.5H98.0622Z" fill="#5C7FA8"/>
<path d="M227.72 386.582C224.775 383.562 218.698 380.941 211.356 380.941C206.424 380.941 200.924 382.12 195.416 385.157C184.942 390.933 160.14 412.098 139.107 437.546C138.887 437.801 138.106 438.725 137.987 438.903C122.446 457.947 109.162 479.247 105.597 498.24C103.934 507.13 104.494 515.036 107.244 521.873C107.354 522.017 107.533 522.628 107.694 522.917C108.958 525.775 110.614 528.456 112.676 530.924C112.88 531.162 113.109 531.399 113.364 531.637C146.653 502.617 169.68 472.605 183.974 450.762C203.08 421.573 211.152 400.315 211.228 400.103L212.222 400.477C212.145 400.689 204.031 422.057 184.857 451.339C170.538 473.208 147.493 503.262 114.179 532.324C116.912 534.351 121.775 535.938 128.761 535.361C140.873 534.36 173.177 524.969 211.551 459.593C238.687 413.379 235.325 394.377 227.72 386.582Z" fill="#8BA7CC"/>
<path fill-rule="evenodd" clip-rule="evenodd" d="M45.9674 557.16C46.2619 552.882 47.6185 549.296 49.4412 546.471C52.1549 542.266 55.9044 539.754 58.7249 539.183C66.0066 537.708 78.1462 542.806 94.6205 575.43C117.931 621.573 111.376 643.547 107.473 650.855C105.54 654.475 103.269 656.608 101.29 657.655C101.06 657.777 100.833 657.884 100.611 657.977C100.521 658.015 100.431 658.051 100.342 658.085C100.293 657.745 100.242 657.407 100.192 657.069C95.7903 627.709 87.1873 603.768 80.0206 587.669C80.0205 587.669 80.0206 587.669 80.0206 587.669C71.7092 568.998 63.7286 557.116 61.5474 554.009C61.2419 553.574 61.0502 553.311 60.9872 553.226C60.9747 553.209 60.9672 553.199 60.965 553.196L60.384 553.627C60.385 553.628 60.3869 553.631 60.39 553.635C60.394 553.64 60.3998 553.648 60.4073 553.658C60.9316 554.37 69.9237 566.765 79.3633 587.961C79.3634 587.961 79.3633 587.961 79.3633 587.961C86.5985 604.202 95.287 628.445 99.631 658.188C99.6363 658.225 99.6416 658.261 99.6469 658.297C99.5534 658.321 99.4615 658.342 99.3712 658.361C99.2388 658.388 99.1098 658.411 98.9841 658.428C96.8061 658.697 94.657 658.654 92.5501 658.322C92.4396 658.315 92.283 658.281 92.1376 658.25C91.987 658.218 91.8483 658.189 91.7855 658.194C86.848 657.242 82.1069 654.641 77.6234 650.402C68.0485 641.34 60.7425 625.859 55.5651 609.919C55.5068 609.785 55.2652 608.996 55.2008 608.775C48.3801 587.322 45.4091 565.294 45.9674 557.16ZM54.2436 609.067C50.8189 598.293 48.3617 587.38 46.8298 578.136C45.3014 568.913 44.6817 561.279 44.9692 557.091C45.2757 552.638 46.69 548.89 48.6003 545.929C51.422 541.556 55.3794 538.84 58.5262 538.203C62.5478 537.389 67.7072 538.45 73.8785 543.762C80.0259 549.053 87.2505 558.616 95.5137 574.979C118.916 621.304 112.462 643.638 108.356 651.326C106.043 655.656 103.201 658.055 100.76 658.996L100.767 659.046L100.338 659.154L99.5313 659.457L99.5159 659.352C99.3824 659.378 99.2503 659.401 99.1196 659.418L99.1068 659.42C96.8484 659.699 94.6181 659.657 92.4318 659.315C92.3344 659.306 92.2416 659.291 92.1708 659.278C92.087 659.262 92.0008 659.244 91.9324 659.229L91.9211 659.227C91.8592 659.214 91.8142 659.204 91.7795 659.197L91.7297 659.201L91.596 659.176C86.434 658.181 81.527 655.469 76.9357 651.128C67.178 641.893 59.812 626.224 54.6229 610.257C54.5664 610.11 54.4877 609.861 54.4304 609.678C54.3559 609.441 54.2798 609.19 54.2436 609.067Z" fill="#5C7FA8"/>
<path d="M58.7244 539.183C55.9039 539.754 52.1545 542.266 49.4408 546.471C47.6181 549.296 46.2614 552.882 45.967 557.16C45.4087 565.294 48.3797 587.322 55.2004 608.775C55.2648 608.996 55.5064 609.785 55.5647 609.919C60.7421 625.859 68.0481 641.34 77.623 650.402C82.1064 654.641 86.8476 657.242 91.7851 658.194C91.9086 658.184 92.3247 658.308 92.5497 658.322C94.6566 658.654 96.8057 658.697 98.9837 658.428C99.1952 658.399 99.4161 658.355 99.6465 658.297C95.3078 628.504 86.607 604.222 79.363 587.961C69.6848 566.229 60.4769 553.749 60.3835 553.627L60.9646 553.196C61.058 553.318 70.3135 565.864 80.0201 587.669C87.2693 603.953 95.9881 628.261 100.342 658.085C102.515 657.268 105.222 655.069 107.473 650.855C111.376 643.547 117.93 621.573 94.6201 575.43C78.1458 542.806 66.0062 537.708 58.7244 539.183Z" fill="#8BA7CC"/>
<path d="M0 123.144V174C3.34584 173.59 6.78463 172.825 10.2234 171.678C29.3691 165.3 41.4513 149.551 37.1575 136.581L17.1567 76L15.1678 76.662L32.5941 129.41C25.7165 122.762 13.2068 120.217 0 123.144Z" fill="#5C7FA8"/>
<path d="M244.574 219.772C232.32 220.253 222.644 228.101 223 237.271C223.175 241.744 225.672 245.849 230.035 248.825C234.055 251.57 239.218 253.055 244.686 253.055C245.079 253.055 245.479 253.049 245.872 253.03C258.126 252.55 267.801 244.702 267.445 235.531V235.525L264.711 181L210.116 199.915L209.717 200.052L212.164 248.85C210.978 246.498 209.074 244.377 206.533 242.637C202.226 239.692 196.595 238.195 190.69 238.432C178.437 238.912 168.761 246.76 169.117 255.931C169.466 264.808 179.086 271.714 190.821 271.714C191.208 271.714 191.602 271.708 191.995 271.689C204.248 271.209 213.924 263.361 213.568 254.19V254.184L210.896 200.838L263.662 182.56L266.053 230.216C262.801 223.796 254.318 219.404 244.574 219.772Z" fill="#5C7FA8"/>
<path d="M38.7122 46.9718V41.6877H43.9994V40.2841H38.7122V35H37.3077V40.2841H32.0205V41.6877H37.3077V46.9718H38.7122Z" fill="#5C7FA8"/>
<path d="M66.4346 89.0631V84.8646H70.6294V83.7541H66.4346V79.5556H65.3172V83.7541H61.1162V84.8646H65.3172V89.0631H66.4346Z" fill="#5C7FA8"/>
<path d="M231.162 69.9981V65.7497H235.413V64.6205H231.162V60.3721H230.032V64.6205H225.781V65.7497H230.032V69.9981H231.162Z" fill="#8BA7CC"/>
<path d="M163.791 364.043V358.759H169.079V357.356H163.791V352.072H162.387V357.356H157.1V358.759H162.387V364.043H163.791Z" fill="#5C7FA8"/>
<path d="M316.888 528.972V523.688H322.175V522.284H316.888V517H315.483V522.284H310.196V523.688H315.483V528.972H316.888Z" fill="#5C7FA8"/>
<path d="M195.478 315.27V311.178H199.573V310.092H195.478V306H194.392V310.092H190.297V311.178H194.392V315.27H195.478Z" fill="#8BA7CC"/>
<path d="M615.446 678.799L630 610.612L627.742 610.133L615.064 669.503C611.844 658.071 598.838 647.588 581.734 643.966C571.302 641.756 560.912 642.383 552.47 645.725C543.862 649.13 538.282 654.953 536.756 662.115C535.781 666.696 534.84 676 541.844 684H613.389C614.082 682.625 615.124 680.321 615.446 678.799Z" fill="#5C7FA8"/>
<path d="M456.303 607.793V603.026H461.056V601.76H456.303V597H455.038V601.76H450.285V603.026H455.038V607.793H456.303Z" fill="#8BA7CC"/>
<path d="M381.288 626.454C363.163 620.779 344.458 621.055 326.91 626.232C314.691 589.726 287.754 560.398 250.881 548.851C219.948 539.165 166.977 532.247 91.1136 618C91.1136 618 60.0384 548.851 8.58575e-05 578C0.000375579 590 0.000183992 665 0 684L440.78 684C429.273 656.5 400.103 632.346 381.288 626.454Z" fill="#5C7FA8"/>
<path d="M267.472 51.91C270.874 55.98 276.718 60.5 283.942 64.65C284.453 64.94 284.753 65.5 284.713 66.09C284.483 69.63 283.812 74.01 282.131 77.76C287.024 75.07 290.306 72.25 292.338 70.14C292.638 69.83 293.038 69.67 293.448 69.67C293.658 69.67 293.879 69.71 294.079 69.8C315.002 79.17 339.558 83.25 363.213 81.27C384.036 79.53 400.967 67.18 408.501 48.24C414.715 32.63 413.585 15.23 405.9 0H257.265C256.825 1.65 256.445 3.35 256.155 5.08C253.213 22.1 257.556 40.04 267.472 51.91Z" fill="#5C7FA8"/>
</svg>
